<svg width="40" height="41" viewBox="0 0 40 41" fill="none" xmlns="http://www.w3.org/2000/svg">
<path d="M32.253 13.1946L25.6551 7.25642C23.7753 5.56463 22.8354 4.71874 21.6822 4.2762L21.6668 8.83367C21.6668 12.762 21.6668 14.7262 22.8872 15.9466C24.1076 17.167 26.0718 17.167 30.0002 17.167H35.967C35.3627 15.9933 34.2808 15.0196 32.253 13.1946Z" fill="white"/>
<path fill-rule="evenodd" clip-rule="evenodd" d="M16.6668 37.1668H23.3335C29.6189 37.1668 32.7616 37.1668 34.7142 35.2142C36.6668 33.2616 36.6668 30.1189 36.6668 23.8335V23.105C36.6668 21.6503 36.6668 20.5574 36.5958 19.667H30.0002L29.8421 19.667C28.0136 19.6672 26.3976 19.6673 25.0951 19.4922C23.6832 19.3023 22.2716 18.8665 21.1195 17.7144C19.9673 16.5623 19.5315 15.1506 19.3417 13.7388C19.1666 12.4362 19.1667 10.8203 19.1668 8.99178L19.1822 4.26777C19.1827 4.13038 19.1944 3.99448 19.2168 3.86126C18.5358 3.8335 17.7265 3.8335 16.7165 3.8335C10.398 3.8335 7.23874 3.8335 5.28612 5.78612C3.3335 7.73874 3.3335 10.8814 3.3335 17.1668V23.8335C3.3335 30.1189 3.3335 33.2616 5.28612 35.2142C7.23874 37.1668 10.3814 37.1668 16.6668 37.1668ZM18.3335 30.5002C20.1744 30.5002 21.6668 29.1834 21.6668 27.559C21.6668 26.2716 20.7294 25.1774 19.424 24.7788C19.2385 23.3094 17.8261 22.1668 16.1113 22.1668C14.2703 22.1668 12.7779 23.4836 12.7779 25.108C12.7779 25.4673 12.8509 25.8115 12.9846 26.1298C12.8279 26.1026 12.6659 26.0884 12.5002 26.0884C11.1195 26.0884 10.0002 27.076 10.0002 28.2943C10.0002 29.5126 11.1195 30.5002 12.5002 30.5002H18.3335Z" fill="white"/>
</svg>
