<svg width="40" height="41" viewBox="0 0 40 41" fill="none" xmlns="http://www.w3.org/2000/svg">
<path d="M26.6666 13.8332L31.6666 13.834C34.428 13.8344 36.6669 11.5962 36.6674 8.83477C36.6678 6.07335 34.4296 3.83442 31.6682 3.83398C28.9067 3.83355 26.6678 6.07177 26.6674 8.8332L26.6666 13.8332L13.334 13.8332L13.3333 8.8332C13.3328 6.07177 11.0939 3.83355 8.33246 3.83398C5.57104 3.83442 3.33282 6.07335 3.33325 8.83477C3.33369 11.5962 5.57262 13.8344 8.33404 13.834L13.334 13.8332L13.3333 27.1665H26.6666V13.8332Z" fill="white"/>
<path d="M26.6666 27.1665L31.6666 27.1673C34.428 27.1669 36.6669 29.4051 36.6674 32.1665C36.6678 34.928 34.4296 37.1669 31.6682 37.1673C28.9067 37.1678 26.6678 34.9295 26.6674 32.1681L26.6666 27.1665Z" fill="white"/>
<path d="M8.33404 27.1673L13.334 27.1681L13.3333 32.1681C13.3328 34.9295 11.0939 37.1678 8.33246 37.1673C5.57104 37.1669 3.33282 34.928 3.33325 32.1665C3.33369 29.4051 5.57262 27.1669 8.33404 27.1673Z" fill="white"/>
</svg>
