<svg width="21" height="22" viewBox="0 0 21 22" fill="none" xmlns="http://www.w3.org/2000/svg">
<path fill-rule="evenodd" clip-rule="evenodd" d="M1.40534 5.82073C1.84952 5.63037 2.36391 5.83612 2.55427 6.2803L1.75002 6.62498C2.55427 6.2803 2.5544 6.28059 2.55427 6.2803L2.55382 6.27925C2.55357 6.27868 2.55375 6.2791 2.55382 6.27925L2.55725 6.28701C2.56075 6.29489 2.56678 6.3083 2.57535 6.32685C2.59249 6.36397 2.61978 6.42161 2.6574 6.49685C2.7327 6.64746 2.84901 6.86775 3.00776 7.13446C3.32626 7.66954 3.81015 8.38219 4.46934 9.09209C4.62471 9.25941 4.78914 9.42594 4.96282 9.58952C4.97008 9.59612 4.97726 9.60286 4.98435 9.60975C6.28345 10.8262 8.09579 11.875 10.5 11.875C11.5579 11.875 12.4936 11.673 13.3183 11.3484C14.3911 10.9261 15.2903 10.2905 16.0262 9.59972C16.8571 8.81981 17.4674 7.98126 17.8704 7.3346C18.0711 7.01253 18.2181 6.74151 18.3137 6.55418C18.3614 6.46062 18.3961 6.38823 18.4181 6.34114C18.429 6.3176 18.4368 6.30041 18.4414 6.2901L18.4458 6.2803C18.6362 5.83637 19.1506 5.63042 19.5947 5.82073C20.0389 6.01109 20.2446 6.52548 20.0543 6.96966L19.25 6.62498C20.0543 6.96966 20.0544 6.96946 20.0543 6.96966L20.0524 6.97405L20.0492 6.98125L20.0392 7.00386C20.0309 7.02252 20.0192 7.04828 20.0042 7.0806C19.974 7.14523 19.9303 7.23621 19.8727 7.34925C19.7575 7.57514 19.586 7.8903 19.3556 8.26007C19.0033 8.82545 18.5081 9.52665 17.8585 10.2337L18.5562 10.9315C18.8979 11.2732 18.8979 11.8272 18.5562 12.1689C18.2145 12.5106 17.6605 12.5106 17.3188 12.1689L16.5836 11.4338C16.0899 11.8325 15.5374 12.2087 14.9238 12.5332L15.6084 13.5853C15.872 13.9903 15.7573 14.5323 15.3522 14.7959C14.9472 15.0594 14.4052 14.9447 14.1416 14.5397L13.2793 13.2145C12.6852 13.3966 12.0505 13.5257 11.375 13.5862V14.9375C11.375 15.4207 10.9833 15.8125 10.5 15.8125C10.0168 15.8125 9.62502 15.4207 9.62502 14.9375V13.5863C8.94721 13.5258 8.31268 13.3964 7.72048 13.2148L6.85843 14.5397C6.59487 14.9447 6.05286 15.0595 5.64781 14.7959C5.24276 14.5323 5.12805 13.9903 5.39161 13.5853L6.07621 12.5331C5.46361 12.2089 4.91096 11.8328 4.41659 11.4336L3.68124 12.1689C3.33953 12.5106 2.78551 12.5106 2.4438 12.1689C2.10209 11.8272 2.10209 11.2732 2.4438 10.9315L3.14156 10.2337C2.40219 9.42895 1.86181 8.63069 1.504 8.02956C1.32096 7.72205 1.18433 7.46383 1.09215 7.27948C1.04603 7.18723 1.01094 7.11329 0.986642 7.06068C0.97449 7.03437 0.965029 7.01338 0.958229 6.99809L0.950017 6.97947L0.947399 6.97344L0.946461 6.97127L0.946084 6.97039C0.945921 6.97002 0.945769 6.96966 1.75002 6.62498L0.946084 6.97039C0.755723 6.52622 0.961165 6.01109 1.40534 5.82073Z" fill="white"/>
</svg>
