<svg width="20" height="20" viewBox="0 0 20 20" fill="none" xmlns="http://www.w3.org/2000/svg">
<path d="M7.50001 14.375C7.15483 14.375 6.87501 14.6548 6.87501 15C6.87501 15.3452 7.15483 15.625 7.50001 15.625H12.5C12.8452 15.625 13.125 15.3452 13.125 15C13.125 14.6548 12.8452 14.375 12.5 14.375H7.50001Z" fill="white"/>
<path fill-rule="evenodd" clip-rule="evenodd" d="M9.99993 1.04184C9.39571 1.04184 8.84444 1.20777 8.241 1.48943C7.65686 1.76208 6.98136 2.16447 6.13479 2.66878L4.92178 3.39136C3.98919 3.94689 3.24605 4.38956 2.68339 4.81287C2.10254 5.24986 1.66659 5.69984 1.38249 6.29244C1.09825 6.88533 1.02121 7.50584 1.04592 8.23004C1.06984 8.93103 1.19247 9.78322 1.34623 10.8518L1.58986 12.5449C1.78768 13.9198 1.94467 15.0109 2.17919 15.8603C2.42095 16.7359 2.76398 17.4309 3.38297 17.9639C4.00146 18.4965 4.74146 18.7347 5.64688 18.8482C6.52621 18.9585 7.6356 18.9585 9.03518 18.9585H10.9647C12.3642 18.9585 13.4736 18.9585 14.353 18.8482C15.2584 18.7347 15.9984 18.4965 16.6169 17.9639C17.2359 17.4309 17.5789 16.7359 17.8207 15.8603C18.0552 15.0109 18.2122 13.9198 18.41 12.5449L18.6536 10.8517C18.8074 9.78321 18.93 8.93102 18.9539 8.23004C18.9787 7.50584 18.9016 6.88533 18.6174 6.29244C18.3333 5.69984 17.8973 5.24986 17.3165 4.81287C16.7538 4.38956 16.0107 3.94689 15.0781 3.39136L13.8651 2.66878C13.0185 2.16447 12.343 1.76208 11.7589 1.48943C11.1554 1.20777 10.6041 1.04184 9.99993 1.04184ZM6.74625 3.75952C7.6275 3.23456 8.24929 2.86501 8.76969 2.62212C9.27727 2.3852 9.64222 2.29184 9.99993 2.29184C10.3576 2.29184 10.7226 2.3852 11.2302 2.62212C11.7506 2.86501 12.3724 3.23456 13.2536 3.75951L14.4076 4.44696C15.3779 5.02494 16.0626 5.43379 16.565 5.81176C17.0554 6.18069 17.3239 6.48596 17.4902 6.83281C17.6564 7.17938 17.7255 7.57798 17.7047 8.18741C17.6833 8.81228 17.5713 9.5971 17.4112 10.7094L17.1789 12.3238C16.9735 13.7515 16.8267 14.7637 16.6158 15.5276C16.4096 16.2742 16.1615 16.7065 15.8013 17.0167C15.4405 17.3273 14.9729 17.5107 14.1974 17.608C13.4049 17.7074 12.3739 17.7085 10.9217 17.7085H9.0782C7.62597 17.7085 6.59497 17.7074 5.80243 17.608C5.02698 17.5107 4.55934 17.3273 4.1986 17.0167C3.83838 16.7065 3.59024 16.2742 3.38411 15.5276C3.17318 14.7637 3.02635 13.7515 2.82092 12.3238L2.58862 10.7094C2.42857 9.59709 2.31652 8.81228 2.2952 8.18741C2.2744 7.57798 2.34351 7.17938 2.50965 6.83281C2.67594 6.48596 2.94449 6.18069 3.43488 5.81176C3.93727 5.43379 4.62195 5.02494 5.59222 4.44696L6.74625 3.75952Z" fill="white"/>
</svg>
