<svg width="21" height="22" viewBox="0 0 21 22" fill="none" xmlns="http://www.w3.org/2000/svg">
<path fill-rule="evenodd" clip-rule="evenodd" d="M4.59375 9.29778V7.5C4.59375 4.23807 7.23807 1.59375 10.5 1.59375C13.7619 1.59375 16.4062 4.23807 16.4062 7.5V9.29778C17.3817 9.37063 18.0169 9.55454 18.4812 10.0188C19.25 10.7877 19.25 12.0251 19.25 14.5C19.25 16.9749 19.25 18.2123 18.4812 18.9812C17.7123 19.75 16.4749 19.75 14 19.75H7C4.52513 19.75 3.28769 19.75 2.51884 18.9812C1.75 18.2123 1.75 16.9749 1.75 14.5C1.75 12.0251 1.75 10.7877 2.51884 10.0188C2.98315 9.55454 3.61834 9.37063 4.59375 9.29778ZM5.90625 7.5C5.90625 4.96294 7.96294 2.90625 10.5 2.90625C13.0371 2.90625 15.0938 4.96294 15.0938 7.5V9.25313C14.7586 9.25 14.3951 9.25 14 9.25H7C6.60493 9.25 6.24138 9.25 5.90625 9.25313V7.5Z" fill="white"/>
</svg>
