<svg width="40" height="41" viewBox="0 0 40 41" fill="none" xmlns="http://www.w3.org/2000/svg">
<path fill-rule="evenodd" clip-rule="evenodd" d="M5 17.8613C5 12.5319 5 9.86729 5.62919 8.97084C6.25839 8.07439 8.76387 7.21676 13.7749 5.50148L14.7295 5.17469C17.3416 4.28056 18.6477 3.8335 20 3.8335C21.3523 3.8335 22.6584 4.28056 25.2705 5.17469L26.2251 5.50148C31.2361 7.21676 33.7416 8.07439 34.3708 8.97084C35 9.86729 35 12.5319 35 17.8613V20.4858C35 29.8826 27.9351 34.4426 23.5024 36.379C22.3 36.9042 21.6988 37.1668 20 37.1668C18.3012 37.1668 17.7 36.9042 16.4976 36.379C12.0649 34.4426 5 29.8826 5 20.4858V17.8613ZM23.3333 15.5002C23.3333 17.3411 21.8409 18.8335 20 18.8335C18.1591 18.8335 16.6667 17.3411 16.6667 15.5002C16.6667 13.6592 18.1591 12.1668 20 12.1668C21.8409 12.1668 23.3333 13.6592 23.3333 15.5002ZM20 28.8335C26.6667 28.8335 26.6667 27.3411 26.6667 25.5002C26.6667 23.6592 23.6819 22.1668 20 22.1668C16.3181 22.1668 13.3333 23.6592 13.3333 25.5002C13.3333 27.3411 13.3333 28.8335 20 28.8335Z" fill="white"/>
</svg>
