<svg width="70" height="42" viewBox="0 0 70 42" fill="none" xmlns="http://www.w3.org/2000/svg">
<path d="M22.7 27.9468L17.877 17.5615H17.8571L13.7516 8.75083L9.66595 0H0L4.06568 8.75083L13.0142 27.9269L13.0341 27.9468L14.8876 31.9336L17.8571 38.3123H17.877L19.5711 41.9801H29.2569L24.5535 31.9336L22.7 27.9468Z" fill="url(#paint0_linear_322_1952)"/>
<path d="M11.3594 31.4951L6.47656 41.9802H16.1425L16.2023 41.8606L11.5786 31.9337L11.3594 31.4951Z" fill="url(#paint1_linear_322_1952)"/>
<path d="M66.6054 36.1597L64.6324 31.9338L54.8468 10.9238L50.0039 21.2893V21.3092L54.9664 31.9338L59.6499 41.9803H69.3159L66.6054 36.1597Z" fill="url(#paint2_linear_322_1952)"/>
<path d="M50.0041 0.538206L49.765 0.0199336L43.6864 0C43.6864 0 42.2913 3.00997 42.1717 3.2691V3.28904L42.1318 3.34884L42.092 3.40864C42.092 3.40864 42.0721 3.4485 42.0721 3.46844L42.0322 3.56811C42.0322 3.56811 41.9923 3.64784 41.9724 3.70764C41.9724 3.74751 41.9326 3.76744 41.9326 3.80731C41.9326 3.80731 41.9126 3.84718 41.8927 3.86711L39.6406 8.71096H44.1647L45.1811 10.8638L46.0182 9.0897V9.06977L46.1776 8.7309L46.2175 8.65116L50.0041 0.538206Z" fill="url(#paint3_linear_322_1952)"/>
<path d="M53.8295 8.75071L50.003 0.538086L46.2163 8.67098L46.1765 8.75071L46.017 9.10952L45.18 10.9235L38.5234 25.2158L36.4906 29.6012L30.7109 41.9799H40.3769L47.153 27.4683L50.0428 21.2889L54.8858 10.9235L53.8694 8.75071H53.8295Z" fill="url(#paint4_linear_322_1952)"/>
<path d="M41.8921 3.86711C41.8921 3.86711 41.912 3.82724 41.9319 3.80731C41.9319 3.80731 41.9718 3.74751 41.9718 3.70764C41.9917 3.66777 42.0117 3.62791 42.0316 3.56811L42.0715 3.46844L42.0914 3.40864L42.1312 3.34884L42.1711 3.28904V3.2691L43.6858 0H33.5415C33.3223 0 33.103 0 32.9037 0C32.6845 0.0199336 32.4852 0.0398671 32.266 0.0598007C32.2062 0.0598007 32.1663 0.0598007 32.1265 0.0598007C31.7279 0.0996678 31.3293 0.159468 30.9506 0.239203C30.7115 0.299003 30.4922 0.33887 30.273 0.398671C30.0737 0.458472 29.8545 0.518272 29.6552 0.598007C29.4758 0.637874 29.2965 0.697674 29.1171 0.757475C29.0972 0.757475 29.0772 0.757475 29.0573 0.777409C28.858 0.857143 28.6587 0.936877 28.4594 1.03654C28.28 1.09635 28.1206 1.17608 27.9612 1.23588C27.8416 1.29568 27.722 1.33555 27.6223 1.39535C27.5227 1.45515 27.4231 1.49502 27.3234 1.55482C26.9647 1.75415 26.6059 1.97342 26.2671 2.23256C26.0878 2.35216 25.9084 2.47176 25.7489 2.59136C25.5696 2.71096 25.4301 2.8505 25.2507 2.99003C25.0913 3.12957 24.9318 3.2691 24.7724 3.3887C24.6727 3.48837 24.5532 3.58804 24.4535 3.70764C24.3937 3.74751 24.3339 3.80731 24.2941 3.86711C24.2144 3.94684 24.1346 4.00664 24.0549 4.08638C23.9752 4.18605 23.8755 4.28571 23.7759 4.38538C23.5367 4.66445 23.3175 4.92359 23.0983 5.22259C22.7196 5.72093 22.3808 6.25914 22.0819 6.81728C21.9822 6.99668 21.8826 7.19601 21.8028 7.37542C21.7231 7.55482 21.6235 7.75415 21.5438 7.95349C21.5438 7.95349 21.5438 7.97342 21.5438 7.99336C21.484 8.11296 21.4441 8.23256 21.4043 8.35216C21.3644 8.49169 21.3245 8.6113 21.2647 8.7309C21.0654 9.2691 20.906 9.84718 20.7864 10.4252C20.7067 10.9037 20.627 11.3621 20.5871 11.8405C20.5473 12.2591 20.5273 12.6578 20.5273 13.0565C20.5273 13.515 20.5473 13.9535 20.5871 14.392C20.6071 14.6113 20.627 14.8106 20.6669 15.0299C20.6868 15.2292 20.7266 15.4086 20.7466 15.588C20.7864 15.7674 20.8263 15.9668 20.8662 16.1462C20.906 16.3455 20.9658 16.5249 21.0256 16.7243C21.0854 16.9236 21.1452 17.103 21.205 17.3023C21.2448 17.4219 21.2847 17.5615 21.3445 17.6811C21.4043 17.8206 21.4441 17.9601 21.5039 18.0997V18.1395L21.5438 18.2193L24.4137 24.3588L27.5825 31.1761C27.6622 31.3555 27.722 31.495 27.7818 31.6146L27.9213 31.8937L28.3996 32.8904L28.8181 31.9734L31.6083 25.9934C31.6083 25.9934 31.688 25.8339 31.7478 25.6944L32.1066 24.9169L32.4055 24.2791L32.5649 23.9601L32.824 23.4219L32.9835 23.0831L33.1429 22.7442V22.7043L33.2027 22.6047V22.5648C33.3223 22.3854 32.6247 21.2691 32.545 21.0698C32.1265 20.1528 31.688 19.2159 31.2695 18.299C30.2531 16.1262 28.7384 13.814 29.8744 11.3422C29.9342 11.2027 30.0139 11.0631 30.1136 10.9435C30.273 10.6844 30.4723 10.4452 30.6716 10.2259C30.7713 10.1262 30.8709 10.0266 30.9905 9.92691L31.0303 9.88704C31.0303 9.88704 31.1699 9.76744 31.2496 9.70764C31.2496 9.70764 31.2894 9.66777 31.3094 9.66777C31.3692 9.60797 31.4289 9.56811 31.4887 9.52824C31.6083 9.44851 31.7279 9.36877 31.8475 9.30897C32.7443 8.83057 33.8205 8.7309 34.8569 8.7309H35.0163C35.1957 8.7309 35.375 8.7309 35.5345 8.7309H39.7197L41.9718 3.88704L41.8921 3.86711Z" fill="url(#paint5_linear_322_1952)"/>
<defs>
<linearGradient id="paint0_linear_322_1952" x1="7.2943" y1="35.9801" x2="21.9472" y2="6.00218" gradientUnits="userSpaceOnUse">
<stop stop-color="#43B1B7"/>
<stop offset="1" stop-color="#65C7C6"/>
</linearGradient>
<linearGradient id="paint1_linear_322_1952" x1="10.2832" y1="43.834" x2="15.3668" y2="33.4494" gradientUnits="userSpaceOnUse">
<stop stop-color="#F8951D"/>
<stop offset="1" stop-color="#F26322"/>
</linearGradient>
<linearGradient id="paint2_linear_322_1952" x1="63.317" y1="38.5318" x2="45.7536" y2="3.55107" gradientUnits="userSpaceOnUse">
<stop stop-color="#F8951D"/>
<stop offset="1" stop-color="#F26322"/>
</linearGradient>
<linearGradient id="paint3_linear_322_1952" x1="62.1214" y1="39.1296" x2="44.558" y2="4.14883" gradientUnits="userSpaceOnUse">
<stop stop-color="#F8951D"/>
<stop offset="1" stop-color="#F26322"/>
</linearGradient>
<linearGradient id="paint4_linear_322_1952" x1="34.9759" y1="42.1593" x2="52.4397" y2="6.38122" gradientUnits="userSpaceOnUse">
<stop stop-color="#F36B3C"/>
<stop offset="1" stop-color="#FCB236"/>
</linearGradient>
<linearGradient id="paint5_linear_322_1952" x1="20.6669" y1="29.1628" x2="36.5956" y2="-3.46607" gradientUnits="userSpaceOnUse">
<stop stop-color="#24897E"/>
<stop offset="1" stop-color="#42C3D5"/>
</linearGradient>
</defs>
</svg>
