<svg width="81" height="81" viewBox="0 0 81 81" fill="none" xmlns="http://www.w3.org/2000/svg">
<g clip-path="url(#clip0_358_740)">
<path d="M65.0363 0.64993C66.2675 0.359464 67.5128 0.169724 68.7815 0.165039C69.8673 0.347752 70.9554 0.528122 72.0412 0.710834C73.052 1.13716 74.2105 1.437 75.0219 2.04838C76.1452 2.89636 77.217 3.93407 78.0519 5.13342C78.3802 5.61831 78.7085 6.1032 79.0368 6.58575C79.3229 7.38921 79.6114 8.19268 79.8975 8.99615C80.0194 9.72466 80.1437 10.4555 80.2657 11.184C80.336 12.6879 80.1531 14.1683 79.8224 15.6324C78.8609 18.3426 77.2756 20.589 74.8202 22.1351C73.9432 22.6879 72.9652 23.0767 72.0319 23.5405C70.871 23.7514 69.7266 24.0653 68.5376 24.0816C67.494 23.9575 66.4481 23.831 65.4045 23.7069C64.3046 23.3766 63.2516 22.9268 62.2315 22.4068C61.8492 21.9102 61.5819 22.2452 61.3028 22.5309C60.1584 23.6905 59.014 24.85 57.8672 26.0072C56.7204 27.1761 55.5736 28.3449 54.4245 29.5138L54.3776 29.5583C53.2754 30.0877 53.7514 30.6827 54.3072 31.2801C54.666 31.9125 55.0225 32.5473 55.3813 33.1798C55.7261 34.2854 56.2631 35.3255 56.446 36.4827C56.5257 36.9887 56.8189 37.1503 57.3372 37.1315C58.4206 37.0917 59.5064 37.1292 60.5922 37.1269C60.9252 37.1269 61.331 37.2229 61.3357 36.6748C61.5186 36.5295 61.6171 36.3515 61.5584 36.1102C62.2549 35.1404 62.9092 34.1355 63.8684 33.3906C64.3562 33.0931 64.844 32.7956 65.3318 32.4958C66.0916 32.3131 66.8538 32.1304 67.6136 31.9477C69.1684 31.8961 70.6553 32.1679 72.0506 32.8729C72.3414 33.0556 72.6322 33.2384 72.9207 33.4211C75.0735 35.2529 76.0327 37.5836 75.824 40.3993C75.4323 42.634 74.3559 44.419 72.447 45.7026C70.0666 47.3025 67.5902 47.1971 65.0386 46.2391C63.4392 45.2904 62.1963 44.0184 61.4553 42.2873C61.3544 42.0507 61.2418 41.8001 60.883 41.8235C59.5064 41.9078 58.1181 41.6525 56.7462 41.9523L56.7532 41.9805C56.5891 42.1304 56.6219 42.3154 56.6618 42.5028C56.5984 42.8823 56.5375 43.2618 56.4742 43.6436C56.0638 44.8242 55.6534 46.0048 55.243 47.1854C54.8982 47.7734 54.6238 48.4199 54.1923 48.9376C53.5638 49.6895 53.5802 50.24 54.455 50.7179C55.5502 51.9734 56.7368 53.1376 57.9727 54.2503C59.0843 55.4871 60.2475 56.6724 61.5022 57.7687C61.6991 58.1646 61.9946 58.2255 62.3441 57.9842C63.1696 57.415 64.1358 57.155 65.0339 56.745C66.4129 56.3866 67.8153 56.2484 69.2365 56.2601C70.0502 56.3843 70.8616 56.5108 71.6754 56.6349C75.8333 57.9022 78.5092 60.6921 79.9913 64.7141C80.1601 65.883 80.329 67.0496 80.5002 68.2185C80.3196 69.385 80.139 70.5492 79.9585 71.7158C78.5772 75.6183 75.9295 78.2512 72.0366 79.638C70.871 79.8137 69.7055 79.9894 68.5423 80.165C67.2102 80.0831 65.904 79.8418 64.6118 79.5256C62.1635 78.7174 60.3179 77.1152 58.7677 75.11C57.9774 74.0887 57.6303 72.8565 57.0722 71.7251C56.9104 70.7905 56.7509 69.8535 56.5891 68.9189C56.568 67.497 56.7368 66.0962 57.0558 64.7118C57.4826 63.8193 57.7405 62.8519 58.3104 62.025C58.552 61.6759 58.4933 61.3784 58.0947 61.1817C56.9995 59.9285 55.8152 58.7642 54.5769 57.6516C53.4653 56.4124 52.2998 55.2271 51.0475 54.1332C50.6863 53.8357 50.5808 53.0439 49.8233 53.5195C48.9744 54.0535 48.1161 54.5736 47.2624 55.0983C46.0547 55.466 44.8469 55.8315 43.6392 56.1992C43.3718 56.2461 43.1045 56.2929 42.8371 56.3398C42.6495 56.3023 42.4642 56.2672 42.3142 56.4335L42.2884 56.4288C42.1289 58.0896 41.9647 59.7504 42.3869 61.3995C42.9309 61.7134 43.475 62.0296 44.0167 62.3435C47.0678 65.3185 47.6916 68.0311 46.1743 71.7345C44.9173 73.9716 43.0412 75.3466 40.5107 75.8127C39.3147 75.9744 38.1515 75.7659 36.9954 75.4918C36.6061 75.3279 36.2191 75.1639 35.8298 75.0022C35.1404 74.4377 34.4485 73.8732 33.7591 73.3063C33.3698 72.6973 32.9805 72.0882 32.5912 71.4768C32.359 70.5469 32.1292 69.6169 31.897 68.6893C31.9627 67.3119 32.3027 65.9978 32.828 64.7282C33.1118 64.3299 33.3956 63.9341 33.6793 63.5359C34.5658 62.5028 35.7266 61.8563 36.9063 61.2332L36.9907 61.2519C37.2346 61.2262 37.4527 61.1723 37.4527 60.8608C37.4527 59.467 37.4456 58.0732 37.4527 56.6794C37.4527 56.3866 37.2885 56.2812 37.0517 56.2086C35.8017 55.8221 34.5541 55.4309 33.3064 55.0397L33.3252 55.0936C33.2314 55.0022 33.1376 54.9109 33.0438 54.8195C32.5677 54.5408 32.0917 54.262 31.6156 53.9833C31.0199 53.4796 30.4219 52.9432 29.8919 54.0535L29.8474 54.1004C28.6795 55.2482 27.5116 56.3937 26.3437 57.5415C25.1852 58.6869 24.0244 59.8324 22.8635 60.9779C22.5798 61.2566 22.242 61.5284 22.7416 61.9102C23.2153 62.9526 23.7359 63.9762 24.0431 65.0866C24.1674 66.1313 24.2917 67.1737 24.416 68.2185C24.2354 69.3827 24.0548 70.5492 23.8743 71.7134C22.4273 75.5152 19.85 78.1669 15.9664 79.4904C14.951 79.6661 13.9355 79.8418 12.9224 80.0175C12.6105 80.0058 12.2986 79.9917 11.9867 79.98C11.8343 79.9683 11.6819 79.9589 11.5271 79.9472C10.7954 79.823 10.0637 79.7012 9.33202 79.5771C8.53467 79.2913 7.73732 79.0032 6.93997 78.7174C6.37244 78.3613 5.80491 78.0076 5.23973 77.6516C4.29933 76.7099 3.22994 75.8619 2.45839 74.7984C1.80878 73.9036 1.50626 72.7558 1.0513 71.7204C0.868381 70.6335 0.687804 69.5466 0.504883 68.4597C0.509573 67.1901 0.697185 65.9463 0.987983 64.7141C2.2825 60.6593 5.01225 58.0147 8.97086 56.5717C10.1341 56.4054 11.2972 56.2367 12.4604 56.0704C13.626 56.2391 14.7915 56.4077 15.9547 56.574C16.8388 57.0449 17.8355 57.2698 18.661 57.8671C19.055 58.1505 19.3012 57.8975 19.4935 57.5602C20.6051 56.4475 21.7191 55.3349 22.8307 54.2222C22.887 54.166 22.9432 54.1098 22.9995 54.0535C24.1064 52.9409 25.2134 51.8282 26.3226 50.7155C26.7518 50.5258 26.7283 50.165 26.7635 49.7621C26.8503 48.7596 25.9872 48.2255 25.7058 47.4126C25.15 46.2086 24.7373 44.9507 24.3574 43.6834C24.1369 41.8235 24.1369 41.8188 22.2655 41.8141C21.1469 41.8141 20.0142 41.943 18.9143 41.8095C17.5494 41.6431 16.7169 42.0765 16.3768 43.414C16.2408 43.5804 16.1048 43.7467 15.9688 43.913C14.9697 44.953 13.7831 45.7167 12.4604 46.2742C11.309 46.5553 10.1364 46.5576 8.96148 46.5248C7.87099 46.211 6.81567 45.8174 5.83071 45.2459C5.17876 44.5947 4.52915 43.9434 3.8772 43.2922C3.50667 42.3295 3.13614 41.3691 2.7656 40.4063C2.58737 39.1531 2.73512 37.921 3.02826 36.7005C3.52074 35.445 4.29229 34.3698 5.19752 33.3859C5.28195 33.311 5.36637 33.2384 5.4508 33.1634C6.56943 32.5239 7.66696 31.8305 8.98259 31.6478C10.1505 31.4675 11.2949 31.6267 12.4276 31.9078C14.7493 32.7183 16.4167 34.2035 17.1976 36.5811C17.343 37.0238 17.5893 37.1643 18.0489 37.155C19.5662 37.1245 21.0859 37.169 22.6032 37.1245C23.6843 37.0941 24.5497 36.8364 24.6552 35.4403C24.7138 34.6626 25.1922 33.9177 25.483 33.1587C25.9286 32.4021 26.3273 31.6103 26.8362 30.9006C27.27 30.2962 27.1059 29.9472 26.5454 29.6286C25.4502 28.3754 24.2659 27.2112 23.0277 26.0985C21.9161 24.8593 20.7505 23.6741 19.4982 22.5801C19.3247 22.2733 19.0902 22.2897 18.8299 22.4607C17.9364 23.0463 16.9115 23.3438 15.95 23.7795C14.7868 23.9458 13.6236 24.1144 12.4604 24.2808C11.3019 24.077 10.1458 23.8708 8.98728 23.667C5.0615 22.3693 2.5733 19.638 1.15918 15.8315C1.01847 15.0631 0.877761 14.2948 0.737052 13.5288C0.725327 13.3766 0.715946 13.222 0.70422 13.0697C0.692495 12.7582 0.678424 12.4443 0.666698 12.1327C0.744088 10.9451 0.919974 9.77385 1.22015 8.62135C2.57799 4.82187 5.15531 2.24281 8.94976 0.881835C10.0285 0.619478 11.1167 0.406313 12.2283 0.326669C12.6176 0.338382 13.0092 0.352437 13.3985 0.364149C13.5509 0.375861 13.7034 0.385231 13.8581 0.396944C14.5523 0.528122 15.2465 0.6593 15.9406 0.790478C18.6915 1.53773 20.7951 3.25476 22.4836 5.44262C23.1871 6.35618 23.5037 7.56958 23.9986 8.64712C24.2026 9.8043 24.4066 10.9638 24.6106 12.121C24.4441 13.2852 24.2776 14.4471 24.1088 15.6113C23.6585 16.567 23.3982 17.6094 22.7908 18.4925C22.6149 18.7502 22.6055 18.9844 22.9104 19.1601C24.0056 20.4133 25.1899 21.5775 26.4281 22.6902C27.5397 23.9294 28.7053 25.1147 29.9576 26.2086C30.2765 26.7685 30.6236 26.9371 31.2287 26.4991C31.9369 25.9861 32.7295 25.5925 33.487 25.1475C34.4884 24.7352 35.471 24.2573 36.5474 24.091C37.0821 24.009 37.1525 23.7748 37.2627 23.2829C37.6567 21.512 37.3542 19.7317 37.4714 17.9631C37.5019 17.5204 37.2463 17.3728 36.8687 17.2557C34.1132 16.3983 32.4974 14.4658 31.7211 11.7509C31.5194 10.7132 31.6531 9.66844 31.6578 8.62604C32.1057 7.37282 32.6334 6.15707 33.4659 5.10062C33.548 5.01863 33.6301 4.93665 33.7122 4.85466C34.6995 4.00903 35.7642 3.29458 37.0259 2.91978C38.1703 2.60589 39.3358 2.73473 40.4967 2.74878C41.7701 3.08844 42.9403 3.64126 43.9956 4.43068C44.2325 4.65789 44.467 4.88277 44.7039 5.10999C45.4778 6.19221 46.1508 7.32597 46.4533 8.64243C46.6925 9.80898 46.5612 10.9638 46.3642 12.1187C45.8858 13.4234 45.2175 14.6157 44.2606 15.6347C44.0965 15.787 43.9347 15.9416 43.7705 16.0938C42.5323 16.5131 41.9507 17.2721 42.1242 18.6729C42.2649 19.8137 42.2297 20.999 42.1148 22.1468C41.9835 23.4609 42.4619 24.0676 43.7775 24.0161C43.8549 24.0137 43.9323 24.0161 44.0097 24.0161C45.1776 24.4143 46.3455 24.8102 47.5134 25.2084C48.0645 25.5504 48.5827 25.9837 49.1784 26.2086C49.7835 26.4382 50.5034 26.7708 51.0428 25.9978L54.3659 22.6598C54.5371 22.641 54.6918 22.6012 54.7153 22.3904C55.773 21.3105 56.8306 20.233 57.8859 19.1531C58.2236 18.961 58.4769 18.7127 58.1931 18.3192C57.5951 17.4923 57.37 16.4967 56.901 15.6113C56.7321 14.4471 56.5656 13.2805 56.3968 12.1163C56.5633 10.9521 56.7321 9.79024 56.8986 8.62604C58.3409 4.66726 60.9862 1.9336 65.041 0.64056L65.0363 0.64993ZM12.4581 76.403C16.8764 76.6513 20.9616 72.6621 20.8326 68.2255C21.1703 66.3866 20.3284 64.7797 19.4396 63.3883C17.9739 61.0973 15.7272 59.7926 12.9131 59.6848C12.7606 59.6708 12.6058 59.6591 12.4534 59.645C12.2306 59.556 12.0242 59.5513 11.846 59.7411C7.60364 59.6872 3.87017 63.7631 4.08592 68.2161C3.97805 72.716 7.90148 76.5506 12.4581 76.403ZM76.7245 12.1233C76.9942 7.70545 73.0239 3.64361 68.5399 3.74902C64.0701 3.55693 60.2334 7.0519 60.0294 11.4979C59.7972 13.2079 60.278 14.679 61.1129 16.211C62.7592 19.2327 65.3013 20.4063 68.5493 20.5C72.9817 20.6288 76.9754 16.5389 76.7269 12.1233H76.7245ZM12.6926 3.94344C8.18524 3.63658 4.0226 7.68202 4.27822 12.1257C3.94756 16.6771 7.82409 20.7155 12.4698 20.6616C14.5078 20.9849 16.1775 19.9495 17.6878 18.9188C19.9954 17.347 21.0765 14.9741 20.9944 12.1351C21.0038 10.7202 20.584 9.49509 19.8688 8.23016C18.3116 5.47542 15.6686 3.75604 12.6926 3.9411V3.94344ZM76.8863 68.9118C77.346 63.9762 73.3897 59.6567 68.5446 59.8066C63.7676 59.7902 59.9895 63.5687 60.1302 68.2231C60.1162 73.2665 64.7174 77.3752 69.403 76.5038C73.2607 76.3281 76.5299 73.0111 76.8863 68.9118Z" fill="#5C5C5C"/>
</g>
<defs>
<clipPath id="clip0_358_740">
<rect width="80" height="80" fill="white" transform="translate(0.5 0.165039)"/>
</clipPath>
</defs>
</svg>
