<svg width="134" height="81" viewBox="0 0 134 81" fill="none" xmlns="http://www.w3.org/2000/svg">
<g clip-path="url(#clip0_359_817)">
<path d="M68.7197 10.1595C68.6595 10.3594 68.5894 10.5574 68.541 10.7603C67.6447 14.4959 66.7523 18.2325 65.8569 21.9681C64.5371 27.4745 63.2163 32.9809 61.8896 38.4853C61.7918 38.8921 61.6576 39.2939 61.5006 39.6819C61.2469 40.3103 60.7672 40.6668 60.086 40.7407C60.0258 40.7476 59.9666 40.7614 59.9064 40.7624C58.2411 40.7702 56.5757 40.7919 54.9114 40.7761C54.0052 40.7673 53.405 40.2689 53.1039 39.4367C52.8117 38.6281 52.5442 37.8097 52.2935 36.9873C48.9717 26.0967 45.6539 15.204 42.339 4.31133C42.1988 3.85238 42.0794 3.38654 41.9698 2.91971C41.9244 2.72766 41.9066 2.52281 41.9136 2.32485C41.9343 1.69945 42.261 1.37642 42.8869 1.33801C42.9866 1.3321 43.0873 1.33407 43.188 1.33407C44.5532 1.33407 45.9184 1.33308 47.2846 1.33505C47.5255 1.33505 47.7674 1.33899 48.0063 1.36164C48.7525 1.43059 49.2896 1.80582 49.5679 2.50311C49.7456 2.94827 49.9174 3.40033 50.0358 3.86321C52.4238 13.2274 54.8038 22.5945 57.1858 31.9606C57.2529 32.2255 57.3279 32.4894 57.5155 32.7544C57.5728 32.5604 57.6379 32.3683 57.6843 32.1713C59.932 22.6693 62.1758 13.1663 64.4275 3.66526C64.5243 3.2585 64.6615 2.85865 64.8086 2.46667C65.0139 1.92007 65.4236 1.58127 65.9951 1.46506C66.3278 1.39808 66.6684 1.34392 67.007 1.34096C68.2715 1.32717 69.537 1.33505 70.8016 1.33604C70.9023 1.33604 71.003 1.33801 71.1027 1.34293C72.1717 1.40301 72.7413 1.794 73.0602 2.81236C73.3168 3.63177 73.4926 4.47679 73.69 5.31393C75.837 14.3875 77.9811 23.4611 80.1272 32.5347C80.1716 32.7229 80.2338 32.907 80.4085 33.1099C80.4688 32.8982 80.5329 32.6864 80.5882 32.4727C83.0729 22.885 85.5556 13.2973 88.0432 3.70957C88.1281 3.38161 88.2534 3.0635 88.362 2.74145C88.6868 1.7743 89.4074 1.36361 90.3827 1.34195C91.1853 1.32422 91.9888 1.33308 92.7924 1.33111C93.4755 1.33111 94.1576 1.32225 94.8407 1.33505C95.6373 1.34983 96.0292 1.77037 95.9483 2.55925C95.9039 2.99456 95.814 3.43184 95.6837 3.85041C92.056 15.463 88.4203 27.0736 84.7846 38.6843C84.7125 38.9128 84.6237 39.1363 84.5467 39.3638C84.2071 40.3714 83.4608 40.8126 82.4391 40.8402C81.677 40.8608 80.913 40.849 80.1499 40.849C79.4471 40.849 78.7442 40.8599 78.0414 40.8421C76.7847 40.8106 76.2052 40.393 75.8667 39.1728C75.5182 37.921 75.2349 36.6505 74.9308 35.3859C72.9496 27.1574 70.9704 18.9288 68.9882 10.7012C68.9438 10.518 68.8776 10.3407 68.8223 10.1605C68.7878 10.1585 68.7532 10.1575 68.7197 10.1555V10.1595Z" fill="#5C5C5C"/>
<path d="M66.6745 80.0962C65.3892 80.0962 64.1039 80.1228 62.8197 80.0873C61.7989 80.0587 60.7802 79.9583 59.7615 79.8834C58.6035 79.7977 57.4436 79.7229 56.2877 79.6116C55.2117 79.5082 54.1337 79.4028 53.0676 79.2275C50.578 78.8178 48.0825 78.4307 45.6136 77.9157C41.0145 76.9574 36.514 75.6416 32.1074 74.0097C28.605 72.7126 25.1825 71.2353 21.8528 69.5462C14.2429 65.6875 7.24594 60.9335 0.887693 55.2479C0.693224 55.0746 0.471115 54.913 0.333901 54.7003C0.176944 54.457 0.0308452 54.1695 0.00517928 53.8898C-0.0609599 53.1846 0.515537 52.7109 1.20852 52.8763C1.47702 52.9403 1.74454 53.0516 1.98442 53.1885C5.50263 55.2026 9.10179 57.0581 12.7947 58.7314C17.7137 60.9601 22.7492 62.8816 27.9051 64.4958C31.6375 65.6639 35.4035 66.7069 39.2297 67.5105C41.9335 68.0778 44.6541 68.5722 47.3766 69.042C49.2493 69.365 51.1357 69.6181 53.0232 69.8506C54.4328 70.0249 55.8513 70.1391 57.2699 70.2386C59.3084 70.3804 61.3508 70.4622 63.3892 70.6099C66.3181 70.8226 69.248 70.7113 72.1779 70.6907C73.7198 70.6798 75.2627 70.5705 76.8017 70.4582C78.5786 70.3282 80.3554 70.1815 82.1244 69.9756C84.0721 69.7491 86.0118 69.4507 87.9545 69.1769C91.1707 68.7239 94.3503 68.0798 97.5141 67.3549C104.86 65.6727 112.012 63.3839 118.964 60.4746C119.606 60.2057 120.244 60.0107 120.943 60.251C122.124 60.6568 122.555 61.8839 121.845 62.9092C121.656 63.183 121.399 63.4282 121.13 63.6272C118.709 65.4206 116.165 67.024 113.524 68.4717C105.784 72.7126 97.5615 75.6652 88.9575 77.5759C86.2803 78.1707 83.5755 78.6435 80.8717 79.1044C79.4137 79.3526 77.933 79.4826 76.4591 79.6215C74.8846 79.7702 73.3062 79.8943 71.7277 79.9799C70.0456 80.0706 68.3605 80.104 66.6774 80.1621C66.6774 80.1395 66.6774 80.1159 66.6765 80.0932L66.6745 80.0962Z" fill="#5C5C5C"/>
<path d="M39.5947 36.4507C39.3558 35.9888 39.0942 35.5338 38.9037 35.0512C38.5532 34.1599 38.1288 33.2725 37.9511 32.3428C37.7132 31.093 37.5868 29.8058 37.575 28.5333C37.5325 23.9675 37.5533 19.4016 37.5602 14.8357C37.5631 12.9852 37.3943 11.1573 36.9244 9.3638C35.804 5.09144 33.1348 2.321 28.8634 1.09681C27.0174 0.567931 25.13 0.344365 23.2218 0.271485C19.4667 0.126709 15.8181 0.715661 12.2871 1.97629C11.2151 2.35842 10.1864 2.86859 9.15684 3.35905C8.39772 3.7205 8.04531 4.3646 8.04827 5.20568C8.05222 6.10684 8.04531 7.00799 8.04827 7.90915C8.04827 8.049 8.05814 8.19082 8.08677 8.32674C8.21806 8.95114 8.59318 9.22001 9.21903 9.09986C9.57144 9.03289 9.91793 8.91766 10.2565 8.79553C10.8587 8.57689 11.45 8.32575 12.0522 8.10612C15.3601 6.90064 18.7411 6.11669 22.2978 6.36389C23.664 6.45942 25.0066 6.66231 26.2879 7.17936C27.7597 7.77521 28.8002 8.79258 29.4102 10.2561C29.7597 11.0942 29.9779 11.9639 30.1042 12.8591C30.3658 14.7116 30.274 16.576 30.2839 18.4364C30.2839 18.53 30.2523 18.6245 30.2237 18.7762C29.8861 18.7053 29.5781 18.6403 29.2701 18.5743C25.6285 17.7982 21.9701 17.2231 18.2248 17.556C15.9642 17.7569 13.7886 18.266 11.7837 19.3583C8.81528 20.9744 6.71166 23.3125 5.8331 26.6315C5.28621 28.6988 5.23488 30.7956 5.66429 32.8815C6.50337 36.9569 8.87353 39.7618 12.8458 41.1071C15.755 42.092 18.7312 42.0379 21.6996 41.3741C25.0826 40.6177 27.8634 38.8351 30.1921 36.3079C30.3658 36.1198 30.5386 35.9307 30.7508 35.7002C31.0795 36.3286 31.3747 36.8939 31.6698 37.4592C32.1832 38.4401 32.8051 39.3472 33.5464 40.1705C34.4418 41.1653 35.2492 41.2775 36.3568 40.5546C37.0291 40.1164 37.6934 39.6673 38.3608 39.2221C38.6115 39.0547 38.8691 38.8971 39.1061 38.7129C39.9422 38.0639 40.0794 37.3932 39.5947 36.4507ZM29.8555 29.7595C29.5376 30.8576 28.9502 31.806 28.1654 32.6294C26.9236 33.9304 25.4557 34.866 23.7154 35.3693C21.9691 35.8755 20.207 36.1759 18.3768 35.9691C15.3759 35.6293 13.4628 33.6852 13.2209 30.6616C13.1439 29.7024 13.1459 28.7411 13.3651 27.7956C13.8113 25.8742 14.9475 24.5072 16.7303 23.67C18.1547 23.0003 19.6828 22.7817 21.2327 22.7324C24.2356 22.6379 27.1941 23.0072 30.1161 23.6907C30.1723 23.7045 30.2237 23.738 30.3451 23.7941C30.3994 25.8121 30.4181 27.8094 29.8555 29.7595Z" fill="#5C5C5C"/>
<path d="M112.948 42.0232C109.011 41.9661 105.472 41.3427 102.071 40.017C101.496 39.7925 100.951 39.4813 100.412 39.1759C99.567 38.6983 99.1889 37.9311 99.1682 36.9846C99.1514 36.2036 99.1455 35.4216 99.1682 34.6416C99.2037 33.4854 99.7417 33.0993 100.867 33.4322C101.346 33.574 101.806 33.7808 102.267 33.9768C106.031 35.5792 109.964 36.1859 114.032 35.9249C115.582 35.8254 117.096 35.5112 118.475 34.745C120.304 33.7286 121.247 32.1883 121.187 30.0797C121.146 28.6733 120.569 27.5299 119.447 26.6701C118.61 26.0289 117.662 25.5847 116.672 25.2519C114.773 24.6137 112.851 24.0395 110.947 23.4151C109.557 22.9601 108.153 22.5326 106.804 21.9752C104.591 21.0622 102.741 19.6706 101.396 17.6398C98.6371 13.4728 98.8267 7.41093 103.666 3.52168C105.868 1.75187 108.404 0.770936 111.179 0.386837C115.277 -0.180448 119.265 0.36517 123.148 1.71444C123.878 1.96755 124.569 2.36446 125.229 2.77318C126.001 3.25084 126.349 3.99934 126.337 4.91231C126.327 5.59286 126.337 6.27439 126.334 6.95494C126.334 7.09479 126.334 7.23661 126.315 7.37449C126.199 8.22345 125.709 8.56126 124.878 8.34459C124.549 8.2589 124.224 8.14466 123.916 8.00284C120.398 6.38568 116.701 5.88931 112.872 6.25863C111.689 6.37288 110.553 6.67425 109.465 7.18638C106.402 8.62823 106.149 13.1508 108.852 14.9866C109.976 15.7498 111.19 16.3122 112.469 16.7327C114.945 17.5472 117.432 18.3233 119.913 19.122C121.177 19.5288 122.395 20.0448 123.535 20.7264C127.002 22.7985 128.656 25.8832 128.544 29.8817C128.408 34.6948 125.894 37.9921 121.702 40.1007C119.438 41.2392 116.99 41.7829 114.46 41.9444C113.859 41.9828 113.258 42.0065 112.948 42.0222V42.0232Z" fill="#5C5C5C"/>
<path d="M120.53 55.1613C119.154 55.2509 117.593 55.3307 116.038 55.4587C114.283 55.6025 112.531 55.7887 110.778 55.9581C110.48 55.9866 110.181 56.0654 109.885 56.0526C109.204 56.0231 108.911 55.5129 109.263 54.9407C109.436 54.66 109.688 54.4039 109.958 54.2109C111.317 53.2339 112.812 52.51 114.379 51.928C116.418 51.1706 118.527 50.69 120.68 50.4359C122.311 50.2438 123.954 50.0932 125.599 50.1838C127.619 50.2941 129.642 50.426 131.593 51.0219C132.051 51.1617 132.497 51.3489 132.936 51.5419C133.497 51.7891 133.824 52.254 133.873 52.8459C133.949 53.7795 134.046 54.726 133.977 55.6557C133.773 58.3828 133.126 61.0232 132.189 63.5908C131.041 66.7375 129.502 69.6704 127.269 72.1976C126.622 72.9303 125.888 73.5912 125.162 74.2491C124.936 74.4539 124.617 74.6026 124.317 74.6716C123.806 74.7898 123.497 74.5071 123.522 73.9851C123.534 73.7517 123.61 73.5153 123.692 73.2937C124.609 70.8168 125.566 68.3546 126.445 65.8649C127.119 63.9591 127.643 62.0061 127.908 59.995C128.016 59.1796 128.044 58.3631 127.871 57.5476C127.727 56.873 127.346 56.3963 126.738 56.0802C125.886 55.637 124.96 55.4528 124.023 55.3632C122.927 55.2578 121.823 55.2332 120.532 55.1633L120.53 55.1613Z" fill="#5C5C5C"/>
</g>
<defs>
<clipPath id="clip0_359_817">
<rect width="134" height="80" fill="white" transform="translate(0 0.165039)"/>
</clipPath>
</defs>
</svg>
