<svg width="128" height="81" viewBox="0 0 128 81" fill="none" xmlns="http://www.w3.org/2000/svg">
<g clip-path="url(#clip0_357_725)">
<path d="M6.95049 40.8999C6.62659 40.5558 6.23184 40.2826 5.79661 40.0903C5.36137 39.898 4.89578 39.8069 4.42005 39.8069C3.94433 39.7968 3.47873 39.898 3.0435 40.0801C2.60826 40.2724 2.21352 40.5457 1.88962 40.8898C1.5556 41.2238 1.29244 41.6185 1.12037 42.0536C0.948301 42.4989 0.857206 42.9645 0.857206 43.43C0.847084 43.9057 0.93818 44.3712 1.12037 44.8064C1.30256 45.2416 1.56573 45.6363 1.89974 45.9702C2.22373 46.3145 2.61635 46.5869 3.05222 46.77C3.48809 46.953 3.95752 47.0426 4.43018 47.0329C4.90182 47.0355 5.36912 46.9427 5.80398 46.7601C6.23883 46.5775 6.63226 46.3088 6.96061 45.9702C7.30475 45.6464 7.56791 45.2517 7.7501 44.8165C7.93229 44.3813 8.02339 43.9158 8.02339 43.4401C8.02339 42.9645 7.93229 42.4989 7.7501 42.0638C7.55779 41.6185 7.29462 41.2238 6.95049 40.8999ZM49.3099 32.6821C49.2593 34.9491 49.3706 37.2262 49.6338 39.483H49.5124C49.2289 38.9264 48.6014 37.8941 47.6398 36.3862L24.5623 0.165039H17.5581V46.4054H22.9428V12.9775C23.0035 10.8624 22.9125 8.74719 22.6898 6.63201H22.8922C23.2768 7.64406 23.7728 8.61563 24.3599 9.52647L48.0649 46.4054H54.6947V0.165039H49.3099V32.6821ZM91.2038 41.325H72.1749V25.3043H88.8251V20.4262H72.1749V5.06334H90.0397V0.165039H66.6586V46.4054H91.1734L91.2038 41.325ZM95.3233 0.165039V5.06334H108.583V46.4054H113.968V5.06334H127.379V0.165039H95.3233ZM42.5486 57.9023C41.2036 58.4388 39.9889 59.2566 38.9858 60.3008C37.9533 61.404 37.1436 62.6994 36.6173 64.1264C36.0909 65.5533 35.8581 67.0613 35.9189 68.5692C35.8177 71.3625 36.7893 74.095 38.6517 76.1798C39.5829 77.1615 40.7166 77.9206 41.9717 78.4266C43.2268 78.9326 44.573 79.1552 45.9191 79.0945C47.9435 79.1654 49.9577 78.7403 51.7897 77.8497L51.81 75.4916C50.1298 76.4733 48.2168 76.9591 46.2734 76.9085C45.2309 76.949 44.1883 76.7668 43.2268 76.3721C42.2652 75.9774 41.3947 75.3702 40.6862 74.601C39.2046 72.8803 38.4433 70.6547 38.5606 68.3871C38.4392 65.9885 39.259 63.6406 40.838 61.8391C41.587 61.0093 42.5081 60.3615 43.5304 59.9162C44.5566 59.4798 45.6647 59.2693 46.7795 59.2989C48.5508 59.2685 50.2917 59.7037 51.8404 60.564V58.0237C50.2343 57.3762 48.5102 57.0728 46.7795 57.1331C45.3321 57.1129 43.8847 57.3659 42.5486 57.9023ZM67.7821 65.1485C67.1056 64.4371 66.283 63.8806 65.371 63.5172C64.4589 63.1538 63.479 62.9922 62.4985 63.0435C61.456 62.9929 60.4236 63.1649 59.4519 63.5394C58.4802 63.9138 57.5996 64.4806 56.8506 65.1991C56.1218 66.0088 55.5651 66.95 55.2008 67.9823C54.8364 69.0145 54.6846 70.0974 54.7554 71.1904C54.6542 73.2651 55.3728 75.2993 56.7494 76.8478C57.4377 77.5866 58.2676 78.1736 59.1988 78.5683C60.13 78.9528 61.1321 79.1451 62.1341 79.1046C63.1564 79.135 64.1787 78.9427 65.1302 78.548C66.0816 78.1533 66.9318 77.5562 67.6302 76.7972C69.0497 75.1972 69.784 73.1038 69.6748 70.9678C69.7963 68.8425 69.1181 66.7678 67.7821 65.1485ZM65.9298 75.5422C65.4845 76.0563 64.9271 76.4613 64.3007 76.7263C63.6743 76.9912 62.9954 77.1089 62.3163 77.0704C61.6179 77.1008 60.9297 76.9692 60.292 76.7061C59.6543 76.4328 59.0875 76.028 58.6219 75.5018C57.6519 74.3011 57.1646 72.7818 57.2555 71.2411C57.1644 69.6521 57.6502 68.0835 58.6219 66.8285C59.0774 66.3023 59.6442 65.8873 60.2819 65.604C60.9195 65.3307 61.6179 65.1991 62.3062 65.2295C62.9945 65.189 63.6727 65.3206 64.3002 65.5938C64.9277 65.8671 65.4844 66.282 65.9298 66.8083C66.8497 68.0806 67.2971 69.6339 67.195 71.2006C67.2962 72.7389 66.8509 74.2873 65.9298 75.5422ZM77.6609 64.1567C76.9017 64.8348 76.345 65.7153 76.0718 66.697V63.5191H73.5413V78.7403H76.0718V70.9779C75.9908 69.5712 76.3552 68.1644 77.1042 66.9702C77.3775 66.535 77.7419 66.1707 78.1872 65.9177C78.6326 65.6647 79.1285 65.5129 79.6346 65.5027C80.2824 65.4521 80.9302 65.6242 81.4768 65.9885V63.4787C81.0112 63.3268 80.5253 63.256 80.0395 63.2762C79.169 63.2661 78.3289 63.5799 77.6609 64.1567ZM96.2849 70.4415C96.4063 68.5085 95.8294 66.6059 94.6654 65.0676C94.0884 64.4199 93.3799 63.9037 92.5803 63.5697C91.7807 63.2358 90.9203 63.084 90.06 63.1346C89.1086 63.1042 88.1571 63.2965 87.2765 63.6811C86.406 64.0656 85.6267 64.6425 84.9991 65.3712C83.6248 66.9745 82.9119 69.0404 83.0051 71.15C82.8736 73.255 83.5315 75.3398 84.8473 76.9793C85.485 77.6777 86.2745 78.2242 87.1449 78.5885C88.0154 78.9528 88.9669 79.1046 89.9082 79.0642C91.7807 79.1552 93.633 78.6492 95.1917 77.6169V75.3297C93.8599 76.4117 92.201 77.0109 90.4851 77.0299C89.8272 77.0704 89.1592 76.9692 88.5417 76.7263C87.9243 76.4834 87.3575 76.1292 86.8919 75.6536C85.9876 74.5592 85.5286 73.1645 85.6064 71.7471H96.3051L96.2849 70.4415ZM85.5862 69.7331C85.7178 68.5288 86.2441 67.3953 87.0741 66.5148C87.446 66.1152 87.8976 65.7979 88.3997 65.5835C88.9018 65.3691 89.4432 65.2623 89.9891 65.27C90.5155 65.2396 91.0317 65.3307 91.5175 65.5331C92.0034 65.7355 92.4285 66.0391 92.7726 66.4338C93.4811 67.375 93.8354 68.5288 93.7848 69.7027L85.5862 69.7331Z" fill="#5C5C5C"/>
</g>
<defs>
<clipPath id="clip0_357_725">
<rect width="127" height="80" fill="white" transform="translate(0.5 0.165039)"/>
</clipPath>
</defs>
</svg>
