<svg width="384" height="60" viewBox="0 0 384 60" fill="none" xmlns="http://www.w3.org/2000/svg">
<g clip-path="url(#clip0_359_827)">
<path d="M70.6079 41.3556C68.7212 49.8861 63.0998 55.0052 54.5016 56.8136C53.4993 57.0233 52.48 57.1089 51.4542 57.1089C46.2867 57.1089 41.1192 57.1089 35.9496 57.1068C35.7483 57.1068 35.5448 57.0726 35.3435 57.0554C35.3435 57.0554 35.3435 57.0533 35.3414 57.0533C35.1872 56.7986 35.2108 56.5183 35.2108 56.2401C35.2108 52.7902 35.2086 49.3404 35.2129 45.8905C35.2129 45.5866 35.2043 45.2806 35.3136 44.9895C35.3564 44.9189 35.4035 44.8633 35.4528 44.8162H35.4549C35.7419 44.5529 36.138 44.645 36.4914 44.6428C41.0443 44.6321 45.5971 44.6535 50.15 44.6278C51.8825 44.6193 53.5593 44.3389 55.0369 43.3181C57.5854 41.5568 58.8467 38.5692 58.2449 35.6651C57.6025 32.5577 55.3882 30.3683 52.2487 29.7391C50.8481 29.4566 50.8331 29.4588 50.7325 28.0506C50.5826 25.9362 50.3813 23.8389 49.5504 21.8486C48.5867 19.5458 47.1476 17.5983 45.2909 15.944C45.2481 15.8798 45.2202 15.8177 45.2052 15.7578C45.1988 15.7343 45.1945 15.7107 45.1924 15.6872C45.1624 15.4475 45.3316 15.2506 45.5093 15.073C48.1006 12.4685 50.7047 9.87681 53.313 7.29156C53.4415 7.1653 53.5829 7.05615 53.7777 7.05615C54.2938 7.16102 54.5744 7.5869 54.9085 7.91647C58.3199 11.2807 60.7355 15.2485 62.1125 19.8347C62.2453 20.2734 62.4573 20.5773 62.8235 20.862C69.6035 26.1095 72.4496 33.0178 70.6079 41.3556Z" fill="#5C5C5C"/>
<path d="M121.596 26.6379C124.461 26.6379 127.326 26.6507 130.189 26.6251C130.686 26.6208 130.851 26.7963 130.909 27.2478C132.425 39.1618 124.846 46.6757 116.107 48.146C103.264 50.3075 94.0042 41.3404 92.3616 32.4568C91.0168 25.1869 93.0362 18.9678 98.4585 13.8679C105.95 6.82052 117.321 6.4674 125.163 13.0611C125.783 13.5818 125.807 14.1318 125.236 14.7111C124.377 15.5842 123.499 16.4424 122.668 17.3434C122.313 17.7286 122.114 17.7393 121.707 17.3798C116.674 12.9348 108.969 12.6502 103.69 16.8298C98.8097 20.6927 96.9102 25.8204 98.3343 31.8491C99.7263 37.7493 103.686 41.3832 109.631 42.6031C114.355 43.5726 118.627 42.3356 122.199 39.0783C124.073 37.3705 124.986 35.0999 125.362 32.6088C125.459 31.9775 125.03 32.1679 124.754 32.1658C121.48 32.1572 118.205 32.1594 114.931 32.1594C114.239 32.1594 113.55 32.1444 112.86 32.1658C112.505 32.1765 112.366 32.0738 112.37 31.695C112.387 30.1648 112.398 28.6346 112.366 27.1066C112.355 26.5673 112.672 26.6336 113.006 26.6336C115.871 26.6336 118.737 26.6336 121.6 26.6336L121.596 26.6379Z" fill="#5C5C5C"/>
<path d="M35.697 25.369C35.2344 25.8441 34.7611 26.3085 34.2922 26.7772C32.1399 28.9237 29.992 31.0702 27.8355 33.2103C27.0667 33.9722 26.9382 33.9615 26.36 33.0541C24.938 30.8198 22.8586 29.5764 20.2609 29.4801C15.9415 29.3218 12.5879 32.7138 12.4637 36.5981C12.3651 39.6093 13.6522 41.8414 16.1364 43.4593C16.3676 43.6113 16.646 43.7118 16.7702 43.9922C16.7702 44.005 16.7702 44.0179 16.7681 44.0307C16.7681 44.0371 16.7681 44.0436 16.766 44.05C16.7338 44.3346 16.4983 44.4908 16.3184 44.6706C13.7186 47.2708 11.1145 49.8668 8.50613 52.4585C8.31125 52.6532 8.13993 52.895 7.82941 52.9293C3.47998 49.58 0.835206 45.1799 0.179901 39.7633C-0.770933 31.8792 2.06872 25.5167 8.43331 20.7271C8.53397 20.6501 8.62605 20.5602 8.72028 20.4789C8.7781 20.1536 9.06292 20.0508 9.29421 19.9074C12.7656 17.7502 16.5561 16.7187 20.64 16.8064C21.7043 16.83 22.7729 16.9755 23.8287 17.1488C23.9208 17.1702 24.015 17.1895 24.1071 17.213C24.1692 17.2259 24.2313 17.2409 24.2913 17.2558C27.617 18.0477 30.6194 19.4987 33.2471 21.7201C34.1679 22.4991 34.9839 23.3723 35.7527 24.2947C36.0846 24.6927 36.0332 25.0223 35.697 25.369Z" fill="#5C5C5C"/>
<path d="M214.302 44.818C214.313 37.9611 214.3 31.1021 214.319 24.2452C214.321 23.6759 214.18 23.5047 213.599 23.5218C212.246 23.5667 210.888 23.5518 209.535 23.5282C209.085 23.5197 208.873 23.6202 208.918 24.1146C208.961 24.5705 208.927 25.0306 208.927 25.5035C208.809 25.5228 208.779 25.5378 208.764 25.5292C208.697 25.4928 208.629 25.4565 208.578 25.4051C205.764 22.6444 202.401 22.0687 198.724 23.0852C192.767 24.731 189.068 30.3787 189.597 37.0366C190.023 42.3804 194.619 47.7007 200.66 48.3278C203.633 48.6381 206.305 48.026 208.432 45.7703C208.543 45.6526 208.62 45.445 208.909 45.5456C208.909 46.5172 208.989 47.5102 208.897 48.4861C208.378 53.9092 204.108 55.7176 200.076 54.6154C198.091 54.074 196.752 52.6658 195.829 50.8809C195.581 50.3994 195.356 50.3609 194.908 50.5556C193.692 51.0864 192.469 51.6043 191.231 52.0772C190.7 52.2805 190.584 52.4774 190.874 53.006C193.332 57.4896 196.979 59.9999 202.226 59.9999C207.903 60.002 212.329 56.6485 213.865 51.1976C214.46 49.0875 214.3 46.9517 214.302 44.818ZM207.687 40.739C205.337 43.887 200.658 44.268 197.737 41.5586C194.735 38.7701 194.27 34.0682 196.703 30.7853C198.463 28.4077 200.857 27.4339 203.753 27.9903C206.759 28.566 208.312 30.6719 209.079 33.4712C209.269 34.1645 209.284 34.8793 209.282 35.7546C209.357 37.4946 208.826 39.2131 207.687 40.739Z" fill="#5C5C5C"/>
<path d="M53.7777 7.05611C51.1073 9.73338 48.4368 12.4107 45.7706 15.0922C45.5821 15.2848 45.308 15.4239 45.2738 15.7385C45.2502 15.7471 45.2267 15.7535 45.2052 15.7578C44.8262 15.8455 44.6013 15.5416 44.3401 15.3619C42.0058 13.7397 39.4467 12.798 36.5835 12.5926C31.9985 12.2651 28.1288 13.8081 24.7794 16.8428C24.621 16.9862 24.4753 17.1531 24.2912 17.2559C24.1927 17.3115 24.0856 17.3479 23.9571 17.3543C22.6914 17.2473 21.4365 17.0076 20.1602 17.014C16.3311 17.029 12.7762 18.0263 9.50398 20.0123C9.24271 20.1707 8.9793 20.3248 8.72018 20.4789C8.46962 20.2285 8.69234 19.9845 8.76515 19.7726C12.4893 8.79388 20.051 2.16597 31.5445 0.346878C39.4381 -0.902944 46.5608 1.26712 52.8462 6.17011C53.1824 6.4312 53.5679 6.65591 53.7777 7.05611Z" fill="#5C5C5C"/>
<path d="M383.981 17.9021C383.981 16.374 383.966 14.8438 383.989 13.3137C383.996 12.8642 383.893 12.6802 383.398 12.6952C382.3 12.7316 381.199 12.7251 380.098 12.6973C379.65 12.6866 379.468 12.7851 379.479 13.2816C379.561 17.3092 379.359 21.3391 379.603 25.3646C379.635 25.9061 379.608 26.4539 379.608 27.1623C379.077 26.4903 378.659 25.921 378.132 25.4481C374.633 22.3043 368.939 22.133 365.009 25.0564C359.047 29.4929 358.205 38.8173 363.105 44.5742C367.896 50.2005 376.4 49.1947 379.374 44.4757C379.396 44.4415 379.462 44.4372 379.642 44.3602C379.642 45.2804 379.672 46.1172 379.631 46.9476C379.606 47.4698 379.74 47.6709 380.299 47.6431C381.218 47.5982 382.145 47.5832 383.062 47.6474C383.786 47.6987 384.002 47.5061 384 46.7443C383.97 37.1309 383.981 27.5176 383.981 17.9021ZM376.834 42.5967C373.307 45.6314 367.964 44.6898 365.656 40.5679C363.848 37.3406 363.882 33.955 365.694 30.7256C367.101 28.2131 369.386 26.944 372.288 27.0446C375.43 27.1537 377.584 28.808 378.886 31.6116C379.483 32.8978 379.642 33.863 379.642 35.5515C379.736 38.415 378.916 40.8055 376.834 42.5967Z" fill="#5C5C5C"/>
<path d="M233.693 39.198C234.723 38.8192 235.73 38.3784 236.745 37.9632C241.114 36.1741 245.476 34.3742 249.855 32.6087C250.446 32.3711 250.575 32.1464 250.271 31.575C249.935 30.9479 249.737 30.2524 249.416 29.6168C245.262 21.3667 236.726 21.3153 231.901 24.8123C228.085 27.5751 226.493 31.4316 226.603 36.0821C226.765 42.9775 232.432 48.4882 239.062 48.4176C243.683 48.4647 247.031 46.5258 249.716 43.2535C250.061 42.8341 250.117 42.6008 249.581 42.2734C248.47 41.595 247.399 40.8523 246.335 40.1012C245.951 39.8315 245.748 39.7951 245.448 40.236C244.72 41.3146 243.722 42.1043 242.536 42.65C239.096 44.2252 235.111 43.0395 233.447 39.9663C233.235 39.5768 233.211 39.3778 233.693 39.198ZM232.794 34.9136C232.383 35.0848 232.153 35.1532 232.153 34.5562C232.153 30.933 235.415 27.6757 239.396 27.6693C240.835 27.7442 242.373 28.2728 243.429 29.7944C243.709 30.1946 243.694 30.4151 243.176 30.6248C239.709 32.033 236.25 33.4711 232.794 34.9136Z" fill="#5C5C5C"/>
<path d="M174.27 22.6724C167.12 22.6638 161.288 28.2709 161.261 35.5023C161.235 42.9563 167.313 48.4328 174.255 48.4264C181.121 48.42 187.37 43.0462 187.182 35.5579C187.381 28.2024 181.301 22.6809 174.27 22.6724ZM177.328 42.6331C176.358 43.1082 175.337 43.3394 174.219 43.3372C170.362 43.3287 167.113 40.1292 166.893 36.1229C166.685 32.3285 168.82 29.0563 172.157 28.0547C176.35 26.7985 180.781 29.6406 181.442 34.0128C182.01 37.7708 180.41 41.1244 177.328 42.6331Z" fill="#5C5C5C"/>
<path d="M158.911 35.5537C159.115 28.3566 153.236 22.7152 145.998 22.6789C138.715 22.6446 133.14 28.2517 133.012 35.4339C132.877 43.0291 139.107 48.4393 145.987 48.4243C153.179 48.4094 159.123 42.6889 158.911 35.5537ZM145.488 43.3245C142.469 43.1982 139.681 40.7991 138.871 37.6254C137.871 33.7175 139.747 29.7113 143.244 28.2966C147.675 26.5011 152.684 29.4908 153.198 34.2397C153.243 34.6463 153.258 35.053 153.288 35.4596C153.388 39.9966 149.906 43.5107 145.488 43.3245Z" fill="#5C5C5C"/>
<path d="M280.721 48.4134C271.118 48.4284 263.735 42.3761 262.278 33.3834C260.46 22.165 267.78 13.6431 277.089 12.1792C283.017 11.2462 288.302 12.6222 292.583 17.0544C293.001 17.4867 293.095 17.7478 292.583 18.1844C291.808 18.8478 291.101 19.5883 290.379 20.3116C290.124 20.5663 289.975 20.6583 289.666 20.3223C285.929 16.224 281.254 15.3573 276.151 16.8468C270.956 18.3642 267.84 22.0323 266.88 27.3077C266.099 31.605 266.801 35.6947 269.649 39.2066C274.369 45.0277 283.432 45.8217 289.229 40.9316C289.754 40.4886 290.27 40.0177 290.705 39.4891C291.058 39.059 291.249 39.1531 291.572 39.4956C292.292 40.2553 293.033 40.9958 293.795 41.7127C294.14 42.0359 294.196 42.2413 293.842 42.6265C290.985 45.7382 287.435 47.5295 283.289 48.2122C282.278 48.3791 281.256 48.4219 280.721 48.4112V48.4134Z" fill="#5C5C5C"/>
<path d="M35.4549 44.818C35.4485 48.5974 35.4421 52.3769 35.4335 56.1541C35.4314 56.4559 35.4742 56.7619 35.3414 57.053C30.2618 57.0551 25.1821 57.0658 20.1024 57.053C15.9393 57.0423 12.0995 55.9358 8.64098 53.5924C8.35402 53.3977 8.00923 53.2629 7.82935 52.929C10.8018 49.9671 13.7742 47.003 16.7466 44.0411C16.7531 44.0369 16.7616 44.0326 16.768 44.0304C17.0357 43.8806 17.3013 43.9791 17.5604 44.0604C18.5476 44.3643 19.5542 44.4627 20.5864 44.4606C25.135 44.4456 29.6835 44.4478 34.2343 44.4649C34.654 44.4649 35.1723 44.2765 35.4528 44.8159H35.4549V44.818Z" fill="#5C5C5C"/>
<path d="M331.154 34.6547C330.835 27.1879 323.759 21.6579 316.424 23.2073C310.325 24.4935 306.518 29.2895 306.52 35.6756C306.52 39.8552 308.019 43.2323 310.951 45.6527C316.152 49.9501 324.305 49.139 328.46 43.8979C330.61 41.1842 331.297 38.0596 331.154 34.6547ZM324.213 42.0702C320.174 46.1835 313.403 44.4842 311.492 38.8986C311.31 38.3721 311.188 37.82 311.1 37.2699C311.017 36.7435 311.013 36.2063 310.972 35.6734C311.002 31.9068 312.953 28.7866 316.065 27.586C320.637 25.8204 325.65 28.7438 326.494 33.7131C327.023 36.8312 326.515 39.7246 324.213 42.0702Z" fill="#5C5C5C"/>
<path d="M351.717 44.4759C350.192 46.4747 348.286 47.7866 345.89 48.2895C342.727 48.9508 339.788 48.4479 337.463 46.0553C335.64 44.1827 334.857 41.8029 334.833 39.224C334.788 34.3039 334.833 29.3817 334.812 24.4595C334.809 23.8945 334.944 23.704 335.531 23.734C336.553 23.7832 337.578 23.781 338.6 23.734C339.17 23.7083 339.339 23.8709 339.334 24.453C339.309 28.5321 339.315 32.6133 339.324 36.6923C339.326 37.8886 339.326 39.0892 339.621 40.2641C340.405 43.393 342.761 44.5722 345.926 44.2918C348.682 44.0478 350.759 41.8778 351.389 38.8581C351.541 38.1262 351.565 37.3921 351.565 36.6538C351.565 32.6004 351.58 28.5449 351.55 24.4916C351.545 23.8795 351.717 23.7061 352.318 23.7361C353.314 23.7853 354.316 23.7939 355.31 23.7361C355.98 23.6954 356.1 23.948 356.1 24.5579C356.081 31.571 356.088 38.582 356.088 45.5951C356.088 46.1045 356.066 46.616 356.094 47.1253C356.115 47.5341 355.946 47.6496 355.556 47.6432C354.458 47.624 353.357 47.6175 352.256 47.6454C351.796 47.6582 351.7 47.4677 351.71 47.059C351.734 46.2008 351.717 45.3405 351.717 44.4801V44.4759Z" fill="#5C5C5C"/>
<path d="M223.877 28.7868C223.877 34.8026 223.868 40.8163 223.889 46.8321C223.891 47.4506 223.763 47.6753 223.099 47.6475C221.72 47.594 220.337 47.6047 218.957 47.6432C218.399 47.6582 218.201 47.5212 218.221 46.9306C218.266 45.5566 218.236 44.1784 218.236 42.8023C218.236 32.0975 218.242 21.3927 218.223 10.69C218.223 10.0223 218.349 9.75909 219.088 9.79761C220.388 9.86395 221.696 9.85325 222.998 9.80189C223.682 9.77407 223.898 9.94527 223.894 10.6665C223.862 16.7059 223.877 22.7474 223.877 28.7868Z" fill="#5C5C5C"/>
<path d="M298.131 30.073C298.131 24.5451 298.142 19.015 298.116 13.4871C298.114 12.8472 298.286 12.6611 298.922 12.6953C299.915 12.7488 300.915 12.7424 301.911 12.6953C302.479 12.6696 302.646 12.828 302.642 13.4101C302.612 16.6202 302.627 19.8304 302.627 23.0406C302.627 30.9654 302.618 38.888 302.644 46.8129C302.646 47.4913 302.47 47.6924 301.796 47.6496C300.828 47.5897 299.851 47.5983 298.883 47.6496C298.279 47.6796 298.116 47.4956 298.119 46.8899C298.142 41.285 298.134 35.68 298.134 30.0751L298.131 30.073Z" fill="#5C5C5C"/>
<path d="M52.4736 44.6124C51.7797 44.7622 51.0516 44.7986 50.3406 44.8029C45.3787 44.82 40.4168 44.8157 35.4549 44.8179H35.4528L35.4549 44.8157C35.7419 44.5525 36.138 44.6445 36.4914 44.6424C41.0443 44.6317 45.5971 44.6531 50.15 44.6274C51.8825 44.6188 53.5593 44.3385 55.0369 43.3176C57.5854 41.5563 58.8467 38.5688 58.2449 35.6646C57.6025 32.5572 55.3882 30.3679 52.2487 29.7387C50.8481 29.4562 50.8331 29.4583 50.7325 28.0501C50.5826 25.9357 50.3813 23.8384 49.5504 21.8481C48.5867 19.5454 47.1476 17.5979 45.2909 15.9436C45.2481 15.8794 45.2202 15.8173 45.2052 15.7574C44.8262 15.8451 44.6013 15.5412 44.3401 15.3614C42.0058 13.7392 39.4467 12.7976 36.5835 12.5922C31.9985 12.2647 28.1288 13.8077 24.7794 16.8424C24.621 16.9858 24.4753 17.1527 24.2912 17.2554C27.6169 18.0473 30.6194 19.4983 33.247 21.7197C34.1679 22.4987 34.9838 23.3719 35.7526 24.2942C36.0845 24.6923 36.0331 25.0219 35.6969 25.3686C35.2343 25.8437 34.7611 26.3081 34.2921 26.7768C32.1398 28.9233 29.9919 31.0698 27.8354 33.2099C27.0666 33.9718 26.9381 33.9611 26.3599 33.0537C24.9379 30.8194 22.8585 29.576 20.2608 29.4797C15.9414 29.3214 12.5878 32.7134 12.4636 36.5977C12.3651 39.6088 13.6521 41.841 16.1363 43.4589C16.3675 43.6108 16.6459 43.7114 16.7702 43.9918C16.7702 44.0046 16.7702 44.0175 16.768 44.0303C17.0357 43.8805 17.3013 43.9789 17.5604 44.0603C18.5476 44.3642 19.5541 44.4626 20.5863 44.4605C25.1349 44.4455 29.6835 44.4476 34.2342 44.4647C34.654 44.4647 35.1722 44.2764 35.4528 44.8157C35.2065 44.6188 34.9152 44.7087 34.6433 44.7066C30.1782 44.7023 25.711 44.6852 21.2459 44.713C19.7083 44.7237 18.205 44.6338 16.7659 44.0496C16.7594 44.0453 16.753 44.0431 16.7466 44.041C14.5109 42.8618 12.9647 41.1347 12.4186 38.6223C11.6134 34.9177 13.5921 31.2282 17.1192 29.8328C20.6099 28.4525 24.5717 29.7708 26.5419 32.966C26.8746 33.5053 27.2743 33.5424 27.7412 33.0772C30.3238 30.5027 32.8979 27.9174 35.5042 25.3643C35.9175 24.9598 35.8832 24.7373 35.5363 24.3264C32.6474 20.9022 29.0432 18.6401 24.6809 17.5807C24.4368 17.5208 24.1991 17.4309 23.9571 17.3539C24.0063 17.3068 24.0577 17.2597 24.107 17.2126C25.4904 15.9115 26.9295 14.6852 28.6813 13.8933C34.2685 11.3702 39.5902 11.8431 44.6356 15.3336C44.8155 15.4599 45.0061 15.5712 45.1924 15.6867C45.2202 15.7039 45.2459 15.721 45.2738 15.7381C48.2333 18.1093 49.9444 21.2104 50.649 24.8956C50.8953 26.1775 50.9038 27.4809 50.8995 28.7799C50.8974 29.2208 51.0045 29.377 51.4863 29.4198C55.3775 29.7558 58.3413 32.7584 58.609 36.5849C58.8724 40.3622 56.2705 43.7885 52.4736 44.6124Z" fill="#5C5C5C"/>
</g>
<defs>
<clipPath id="clip0_359_827">
<rect width="384" height="60" fill="white"/>
</clipPath>
</defs>
</svg>
