<svg width="212" height="61" viewBox="0 0 212 61" fill="none" xmlns="http://www.w3.org/2000/svg">
<g clip-path="url(#clip0_359_824)">
<path d="M36.2464 57.5728C42.466 56.4745 48.6849 55.3723 54.9031 54.2662L55.0783 54.2288L45.4817 42.7975C40.2038 36.5104 35.8855 31.342 35.8855 31.3127C35.8855 31.2563 45.7944 3.92899 45.8503 3.83157C45.8688 3.79936 52.6122 15.4585 62.1968 32.0948C71.17 47.6696 78.5678 60.511 78.6365 60.6314L78.7616 60.85L48.2637 60.846L17.7655 60.8419L36.2464 57.5728ZM153.203 54.8081C148.56 54.5102 145.861 51.863 145.145 46.9076C144.955 45.5896 144.954 45.555 144.935 36.9979L144.916 28.7154H149.025L149.041 36.7262C149.056 43.9468 149.065 44.7933 149.134 45.301C149.413 47.3624 149.97 48.7488 150.918 49.7435C151.677 50.5398 152.566 51.0063 153.795 51.2535C154.376 51.3703 156.026 51.3703 156.555 51.2539C157.801 50.9794 158.801 50.4359 159.682 49.5535C160.687 48.548 161.43 47.1209 161.79 45.5079L161.911 44.9636L161.924 36.8848L161.937 28.806H166.133V54.2062H161.981V52.1915C161.981 50.8224 161.966 50.1811 161.934 50.192C161.909 50.2004 161.802 50.3639 161.697 50.5551C160.982 51.8614 159.79 53.0566 158.484 53.7763C156.918 54.639 155.348 54.9457 153.203 54.8081ZM200.324 54.7879C198.685 54.6643 196.959 54.1 195.549 53.226C192.576 51.3852 190.818 48.3499 190.302 44.1726C190.124 42.7274 190.103 40.7855 190.252 39.5573C190.584 36.8131 191.661 34.1189 193.194 32.1954C193.587 31.7027 194.479 30.8095 194.971 30.4162C196.297 29.3547 197.849 28.6127 199.507 28.2476C200.469 28.0371 202.163 27.9381 203.185 28.0331C205.753 28.2714 208.106 29.4818 209.705 31.3871C211.33 33.3234 212.223 36.0286 212.338 39.3593C212.355 39.8814 212.36 40.7964 212.347 41.393L212.324 42.4779L203.332 42.4891L194.34 42.5004V42.9026C194.34 44.1259 194.637 45.5191 195.15 46.7047C195.593 47.7271 196.355 48.8434 196.979 49.3837C198.259 50.4915 199.824 51.1545 201.538 51.3139C202.173 51.3731 203.793 51.3107 204.517 51.1992C206.583 50.8812 208.546 50.07 210.132 48.8793C210.263 48.7799 210.395 48.6828 210.529 48.5882C210.575 48.5592 210.587 48.9251 210.585 50.4641L210.584 52.3758L210.159 52.6391C208.365 53.7501 206.309 54.4639 204.133 54.7308C203.483 54.8105 201.101 54.8467 200.324 54.7879ZM208.15 38.6637C208.15 36.6143 207.287 34.3378 206.067 33.1656C205.196 32.3291 204.143 31.8179 202.892 31.6238C202.3 31.532 201.052 31.5675 200.428 31.6935C199.108 31.9608 198.017 32.5416 197.064 33.4836C196.063 34.4751 195.311 35.6795 194.839 37.0514C194.669 37.545 194.47 38.3549 194.409 38.8058L194.379 39.0203H208.15L208.15 38.6637ZM86.1707 54.1499C86.1811 54.1185 89.2349 46.0851 92.9563 36.2975L99.7231 18.5014H104.071L104.252 18.9643C104.803 20.3801 117.798 54.1676 117.798 54.1853C117.798 54.1966 116.757 54.2062 115.485 54.2058L113.172 54.2054L111.299 49.2118L109.426 44.2177H94.3439L94.278 44.3872C94.2418 44.4806 93.4419 46.7276 92.4997 49.3804L90.7873 54.2046L88.4691 54.2054C86.6345 54.2058 86.1554 54.1946 86.1707 54.1499ZM108.05 40.4067C108.05 40.3987 106.789 36.977 105.249 32.8025C102.366 24.993 102.206 24.5232 101.978 23.2692C101.871 22.6815 101.817 22.6654 101.753 23.2016C101.708 23.5848 101.512 24.4431 101.36 24.9189C101.285 25.1552 99.9876 28.7222 98.4766 32.8464C96.9651 36.9701 95.7291 40.3612 95.7291 40.3826C95.7291 40.4039 98.5011 40.4212 101.889 40.4212C105.277 40.4212 108.05 40.4144 108.05 40.4067ZM119.197 53.5557V52.9056L126.71 42.562L134.224 32.2184L127.421 32.1954L120.619 32.1729L120.607 30.4443L120.595 28.7154H140.273V29.8832L132.759 40.2831C128.626 46.0034 125.244 50.6932 125.244 50.7048C125.244 50.7165 128.585 50.7262 132.668 50.7262H140.092V54.2062H119.197V53.5557ZM174.332 54.176C174.315 54.1595 174.302 48.424 174.302 41.4308V28.7154H178.409V31.3368C178.409 32.7788 178.426 33.9582 178.448 33.9582C178.469 33.9582 178.569 33.7223 178.669 33.4337C179.131 32.1121 179.932 30.8771 180.964 29.8953C181.892 29.0113 182.954 28.4823 184.208 28.2798C184.56 28.2235 184.858 28.2122 185.562 28.2307C186.446 28.2537 186.908 28.3185 187.446 28.4944L187.615 28.5499V32.819L187.13 32.5759C186.273 32.1463 185.427 31.9761 184.411 32.0292C183.749 32.0634 183.315 32.1488 182.786 32.3472C181.712 32.7445 180.802 33.4895 180.199 34.4638C179.305 35.8905 178.669 37.7241 178.481 39.4096C178.447 39.7119 178.427 42.1751 178.419 47.0311L178.407 54.2062H176.385C175.272 54.2062 174.348 54.1926 174.332 54.176ZM-0.354492 54.0867C-0.354492 54.0706 4.16726 46.2099 9.69394 36.6183L19.7424 19.1789L31.4526 9.33769C37.8929 3.92496 43.18 -0.510771 43.2013 -0.518822C43.2222 -0.526873 43.1378 -0.31352 43.0128 -0.044615C42.8882 0.224693 37.1661 12.5154 30.2973 27.2686L17.8081 54.0927L8.7268 54.1044C3.73233 54.1108 -0.354492 54.1028 -0.354492 54.0867Z" fill="#5C5C5C"/>
</g>
<defs>
<clipPath id="clip0_359_824">
<rect width="212" height="60" fill="white" transform="translate(0 0.165039)"/>
</clipPath>
</defs>
</svg>
