<svg width="290" height="60" viewBox="0 0 290 60" fill="none" xmlns="http://www.w3.org/2000/svg">
<g clip-path="url(#clip0_359_862)">
<path d="M58.3081 30.0367C58.2888 38.0936 51.9085 45.0467 43.25 45.0536C34.5102 45.0591 28.1561 37.9381 28.1906 29.9638C28.2264 21.4885 35.2031 14.9276 43.2886 14.962C51.4554 14.9978 58.3067 21.5862 58.3081 30.0367Z" fill="#5C5C5C"/>
<path d="M72.5438 27.5068C72.4281 26.1705 72.2118 24.8464 71.9115 23.5376C71.1774 20.3404 70.001 17.3222 68.271 14.5269C66.731 12.0399 64.8618 9.83234 62.6814 7.87936C60.5698 5.98694 58.2598 4.38905 55.7185 3.13524C52.0586 1.3309 48.1688 0.359233 44.1122 0.0770909C41.2003 -0.125226 38.3077 0.0702094 35.4482 0.699181C32.8104 1.27998 30.2815 2.15669 27.882 3.38986C25.0624 4.8391 22.5238 6.68335 20.2675 8.91297C18.9989 10.1668 17.7165 11.4055 16.4424 12.6538C14.3033 14.7471 12.1641 16.8432 10.0277 18.9393C7.05799 21.8544 4.09238 24.7721 1.12264 27.6858C0.885722 27.9184 0.657069 28.1578 0.483513 28.44C-0.154237 29.475 -0.172144 30.5099 0.491777 31.5435C0.672221 31.8243 0.905006 32.0569 1.14055 32.2881C2.94911 34.0608 4.75768 35.8321 6.56487 37.6062C9.21917 40.2129 11.8735 42.8196 14.525 45.4291C16.2193 47.0972 17.9121 48.7666 19.5995 50.4416C20.3819 51.2178 21.1629 51.9954 22.0141 52.6932C25.4577 55.5174 29.2732 57.652 33.5749 58.877C36.0432 59.5802 38.5598 59.9546 41.126 59.9959C42.1384 60.0124 43.148 59.989 44.1604 59.9078C45.5227 59.7991 46.8712 59.6174 48.2128 59.3642C52.4512 58.5659 56.3355 56.9364 59.8535 54.4384C62.2199 52.7579 64.2874 50.7581 66.1084 48.5024C67.8453 46.3498 69.271 44.0087 70.3385 41.4516C71.884 37.7493 72.6181 33.8874 72.6292 29.881C72.603 29.0896 72.6126 28.2941 72.5438 27.5068ZM65.5685 30.9159C65.2613 35.3793 63.9596 39.4972 61.213 43.0935C59.5518 45.2681 57.527 47.0449 55.2295 48.5216C53.2515 49.7933 51.1385 50.7513 48.852 51.3183C46.9842 51.7835 45.0902 52.0133 43.2982 51.9748C40.2017 52.0119 37.3449 51.4807 34.5956 50.3728C32.3063 49.4506 30.2525 48.1514 28.3806 46.5521C27.0734 45.436 25.8943 44.1863 24.6671 42.9848C21.5224 39.906 18.3873 36.8162 15.2454 33.7319C14.5553 33.0533 13.8584 32.3817 13.1641 31.7059C12.9424 31.4912 12.733 31.2669 12.5801 30.9944C12.1476 30.2292 12.2054 29.4048 12.7578 28.7166C12.8942 28.5446 13.0553 28.3918 13.211 28.2377C15.1077 26.3673 17.0017 24.4955 18.9011 22.6292C21.0844 20.4849 23.2607 18.3338 25.4577 16.206C26.4853 15.2123 27.4908 14.1938 28.5817 13.2648C31.1024 11.1164 33.9675 9.62727 37.1672 8.78222C38.5088 8.42713 39.8725 8.19591 41.2568 8.0748C42.0048 8.00873 42.75 7.96882 43.4979 7.97295C46.3726 7.98809 49.1357 8.54825 51.7818 9.66993C54.9278 11.0022 57.6785 12.9084 59.9899 15.4243C62.4362 18.0888 64.0326 21.213 64.9169 24.7102C65.4335 26.7485 65.7131 28.8143 65.5685 30.9159Z" fill="#5C5C5C"/>
<path d="M139.685 27.756C139.455 27.811 139.44 27.9624 139.385 28.0711C138.048 30.7467 136.746 33.4415 135.501 36.1611C134.63 38.0604 133.791 39.9734 132.935 41.8796C132.466 42.9201 132.125 43.1431 130.995 43.0632C129.608 42.9641 128.224 42.9641 126.838 43.0591C126.663 43.0715 126.485 43.0729 126.309 43.0687C125.824 43.0591 125.465 42.8499 125.261 42.3999C125.116 42.0792 124.974 41.7571 124.835 41.4337C122.95 37.0708 120.921 32.7754 118.772 28.5363C118.655 28.3065 118.561 28.0588 118.359 27.8633C118.239 28.067 118.226 28.2652 118.211 28.462C118.163 29.0758 118.111 29.6897 118.079 30.3049C118.014 31.5793 117.969 32.8538 117.903 34.1283C117.839 35.3587 117.762 36.5863 117.691 37.8168C117.686 37.8828 117.685 37.9489 117.681 38.0149C117.622 39.3775 117.569 40.74 117.5 42.1026C117.418 43.728 117.338 45.3534 117.221 46.9774C117.174 47.6353 117.131 48.2932 117.108 48.9524C117.105 49.0405 117.105 49.1286 117.094 49.2167C117.038 49.6488 116.889 49.7906 116.456 49.8181C116.324 49.8264 116.192 49.8209 116.06 49.8209C113.615 49.8209 111.17 49.8209 108.725 49.8209C108.571 49.8209 108.415 49.8278 108.262 49.8126C107.94 49.7796 107.779 49.6255 107.763 49.3075C107.751 49.0667 107.769 48.8231 107.784 48.5822C107.81 48.1432 107.846 47.7055 107.874 47.2665C107.949 46.0594 108.024 44.8524 108.1 43.6454C108.104 43.5793 108.106 43.5133 108.111 43.4472C108.171 42.1948 108.223 40.9423 108.295 39.6899C108.4 37.8677 108.521 36.0468 108.633 34.2246C108.682 33.4126 108.697 32.5992 108.762 31.7872C108.854 30.6256 108.882 29.4585 108.947 28.2955C109.01 27.1765 109.087 26.0576 109.159 24.9373C109.166 24.8272 109.17 24.7171 109.175 24.607C109.235 23.4426 109.279 22.2769 109.356 21.1139C109.466 19.4472 109.594 17.7805 109.729 16.1152C109.777 15.5192 109.944 14.9481 110.222 14.4154C110.557 13.7755 111.036 13.2704 111.673 12.9208C112.258 12.6001 112.881 12.406 113.545 12.3138C114.224 12.2189 114.903 12.1817 115.586 12.2079C116.966 12.2602 118.283 12.5726 119.528 13.1823C120.207 13.5153 120.714 14.0053 121.039 14.688C121.89 16.4758 122.751 18.2581 123.598 20.0473C125.265 23.5665 126.951 27.0761 128.755 30.5278C128.816 30.6448 128.877 30.7618 128.944 30.8761C129.086 31.1142 129.178 31.1169 129.305 30.8898C129.348 30.8127 129.385 30.7329 129.425 30.6545C130.83 27.8399 132.244 25.0295 133.634 22.2067C134.557 20.3322 135.454 18.4439 136.3 16.5322C136.585 15.8881 136.906 15.2619 137.312 14.6825C138.278 13.3075 139.592 12.5299 141.258 12.307C143.443 12.0152 145.502 12.4088 147.483 13.3378C147.939 13.5525 148.157 13.8773 148.174 14.3618C148.201 15.043 148.234 15.7229 148.282 16.4042C148.369 17.6553 148.399 18.9091 148.468 20.1601C148.528 21.2805 148.611 22.398 148.681 23.517C148.731 24.3069 148.746 25.0983 148.811 25.8883C148.903 27.0279 148.929 28.173 148.995 29.3139C149.056 30.3668 149.133 31.4197 149.203 32.4726C149.21 32.5827 149.216 32.6928 149.221 32.8015C149.281 33.9659 149.334 35.1302 149.399 36.2946C149.484 37.8319 149.578 39.3679 149.668 40.9052C149.754 42.3985 149.837 43.8918 149.931 45.3837C149.991 46.3485 150.068 47.3133 150.133 48.278C150.155 48.607 150.172 48.9373 150.166 49.2676C150.161 49.6282 150.008 49.7768 149.641 49.8126C149.533 49.8236 149.421 49.8168 149.311 49.8168C146.844 49.8168 144.377 49.8168 141.91 49.814C141.734 49.814 141.556 49.8195 141.382 49.7947C141.107 49.7548 140.943 49.5979 140.909 49.3227C140.86 48.9524 140.826 48.5795 140.808 48.2065C140.742 46.866 140.692 45.5254 140.625 44.1849C140.542 42.5155 140.45 40.846 140.359 39.1779C140.274 37.5965 140.185 36.0152 140.096 34.4352C140.012 32.9639 139.944 31.4913 139.824 30.0241C139.764 29.2795 139.745 28.5336 139.685 27.7518V27.756Z" fill="#5C5C5C"/>
<path d="M276.421 50.5145C276.289 50.5145 276.157 50.5145 276.025 50.5145C273.166 50.5379 270.37 50.1112 267.617 49.3597C265.994 48.9166 264.44 48.3165 262.998 47.4439C262.905 47.3875 262.804 47.338 262.713 47.2774C262.329 47.02 262.267 46.8081 262.493 46.3856C262.794 45.8226 263.118 45.2735 263.424 44.7133C263.951 43.7486 264.472 42.7783 265 41.8135C265.283 41.296 265.403 41.2506 265.94 41.5162C267.505 42.2883 269.132 42.8925 270.833 43.2847C271.928 43.538 273.033 43.7128 274.157 43.7885C274.861 43.8353 275.563 43.8999 276.267 43.8614C277.122 43.8132 277.982 43.7967 278.83 43.6453C279.224 43.5751 279.594 43.443 279.945 43.2531C280.964 42.7039 280.777 41.1418 279.954 40.7152C279.76 40.6147 279.558 40.5266 279.352 40.4496C278.669 40.1949 277.957 40.0435 277.237 39.9486C276.037 39.7903 274.832 39.683 273.632 39.5233C271.863 39.2866 270.114 38.9535 268.434 38.3273C267.202 37.869 266.086 37.2125 265.154 36.2793C264.012 35.137 263.33 33.7717 263.142 32.1518C262.982 30.7783 263.08 29.4309 263.396 28.0931C263.936 25.8208 265.275 24.1527 267.293 23.0104C268.646 22.2452 270.099 21.7511 271.618 21.4414C272.766 21.2074 273.927 21.1056 275.092 21.0726C275.972 21.0478 276.855 21.0423 277.735 21.0753C279.695 21.1483 281.645 21.3203 283.545 21.8474C284.479 22.1062 285.395 22.4186 286.262 22.8618C286.836 23.1563 287.35 23.5279 287.787 24.0041C288.299 24.5629 288.555 25.2152 288.585 25.975C288.636 27.2012 288.165 28.2046 287.317 29.0496C287.069 29.2974 286.782 29.5066 286.511 29.7323C286.24 29.958 285.956 29.9552 285.654 29.7873C285.019 29.435 284.368 29.1129 283.691 28.8446C282.025 28.1825 280.303 27.7655 278.509 27.6196C277.717 27.555 276.927 27.5027 276.135 27.5453C275.322 27.5894 274.508 27.6251 273.704 27.7697C273.088 27.8798 272.599 28.1991 272.224 28.6877C271.676 29.3992 271.832 30.2539 272.592 30.7383C272.739 30.8319 272.906 30.8966 273.069 30.9613C273.706 31.2159 274.376 31.3577 275.049 31.4595C276.658 31.7004 278.274 31.9082 279.883 32.1463C281.428 32.3762 282.964 32.661 284.445 33.1813C285.661 33.6093 286.784 34.197 287.74 35.0778C288.996 36.2353 289.652 37.6914 289.862 39.3595C289.945 40.0133 290.021 40.6684 289.986 41.3331C289.89 43.2311 289.346 44.9611 288.116 46.4434C287.62 47.0407 287.043 47.5472 286.416 48C284.928 49.0762 283.262 49.7313 281.472 50.103C279.804 50.4498 278.117 50.5654 276.417 50.5145H276.421Z" fill="#5C5C5C"/>
<path d="M255.877 31.7172C255.877 33.7637 255.903 35.8103 255.866 37.8555C255.848 38.8409 255.836 39.8318 255.668 40.8131C255.089 44.1796 253.352 46.7478 250.417 48.5053C249.137 49.2719 247.746 49.7454 246.3 50.0633C244.684 50.4198 243.046 50.6331 241.391 50.5959C238.83 50.5381 236.371 50 234.058 48.8783C232.659 48.1998 231.415 47.3066 230.404 46.1064C229.361 44.8705 228.684 43.4584 228.295 41.8991C228.049 40.9136 227.945 39.9048 227.917 38.8946C227.848 36.5645 227.724 34.233 227.801 31.9016C227.871 29.7903 227.863 27.6791 227.885 25.5678C227.892 24.9444 228.017 24.3484 228.279 23.7786C228.62 23.0409 229.182 22.5482 229.925 22.2399C230.481 22.0087 231.069 21.9096 231.662 21.8738C233.079 21.7899 234.473 21.944 235.837 22.3528C235.963 22.3899 236.086 22.4367 236.209 22.4849C236.576 22.6294 236.764 22.9005 236.769 23.2969C236.771 23.4511 236.775 23.6052 236.775 23.7594C236.772 28.1594 236.768 32.5595 236.764 36.9595C236.764 37.6009 236.816 38.2381 237.016 38.8478C237.687 40.8999 239.1 42.1 241.227 42.4647C242.706 42.718 244.016 42.2982 245.196 41.427C246.067 40.7842 246.556 39.891 246.791 38.845C246.903 38.3482 246.94 37.8458 246.942 37.3394C246.947 36.1956 246.959 35.0519 246.959 33.9069C246.959 31.3772 246.959 28.8462 246.95 26.3165C246.948 25.8073 246.988 25.3008 247.081 24.8067C247.413 23.0533 248.407 22.2661 249.977 21.9839C251.727 21.6688 253.439 21.9275 255.128 22.4078C255.253 22.4436 255.377 22.5 255.49 22.5661C255.731 22.7079 255.881 22.9171 255.899 23.2047C255.906 23.3148 255.907 23.4249 255.907 23.535C255.907 26.2629 255.907 28.9907 255.907 31.7199C255.898 31.7199 255.887 31.7199 255.877 31.7199V31.7172Z" fill="#5C5C5C"/>
<path d="M206.508 39.4999C206.749 39.4228 206.762 39.2218 206.824 39.0691C207.416 37.624 208.001 36.1761 208.585 34.7282C209.689 31.9949 210.784 29.2601 211.897 26.5309C212.187 25.818 212.515 25.1202 212.849 24.4279C213.108 23.8898 213.457 23.4122 213.9 23.0007C214.734 22.2259 215.752 21.9093 216.854 21.8584C218.488 21.7827 220.048 22.1226 221.535 22.7998C221.575 22.8177 221.612 22.8424 221.652 22.8603C222.232 23.1177 222.598 23.3957 222.245 24.3509C221.842 25.4437 221.413 26.5282 220.962 27.6031C219.128 31.9646 217.149 36.2587 215.115 40.528C213.78 43.3287 212.383 46.0979 210.963 48.856C210.605 49.5524 210.135 49.8497 209.349 49.8345C207.388 49.796 205.428 49.8194 203.467 49.818C203.313 49.818 203.158 49.8111 203.004 49.818C202.486 49.8428 202.128 49.624 201.887 49.1601C201.43 48.2821 200.948 47.4164 200.483 46.5424C199.026 43.8036 197.613 41.0427 196.266 38.2474C194.69 34.9773 193.213 31.6618 191.881 28.2843C191.729 27.8962 191.58 27.504 191.463 27.1035C191.179 26.1291 191.149 25.1533 191.516 24.1885C192.008 22.9002 192.941 22.1584 194.302 21.9589C195.42 21.7937 196.538 21.7813 197.656 21.9685C198.091 22.0414 198.512 22.1625 198.931 22.3016C199.519 22.4956 199.88 22.8768 200.09 23.4673C200.744 25.3115 201.412 27.1517 202.106 28.9808C203.339 32.2302 204.674 35.4384 206.084 38.6149C206.218 38.9149 206.368 39.2067 206.508 39.4971V39.4999Z" fill="#5C5C5C"/>
<path d="M185.49 29.8575C185.49 35.7742 185.49 41.691 185.49 47.6077C185.49 48.0041 185.498 48.3991 185.496 48.7955C185.496 48.9703 185.486 49.1478 185.46 49.3212C185.427 49.5387 185.292 49.6804 185.071 49.7121C184.898 49.7382 184.722 49.7465 184.545 49.7465C182.19 49.7479 179.834 49.7492 177.479 49.7465C176.764 49.7465 176.624 49.6089 176.62 48.9001C176.614 47.8004 176.622 46.7007 176.622 45.6011C176.625 34.9774 176.626 24.3537 176.625 13.7286C176.625 13.2428 176.651 12.7624 176.733 12.2835C176.918 11.1852 177.5 10.3828 178.523 9.91761C179.193 9.61344 179.903 9.47719 180.632 9.42764C181.717 9.35332 182.785 9.48682 183.836 9.74832C184.241 9.84879 184.644 9.96027 185.041 10.0896C185.417 10.2121 185.479 10.3099 185.485 10.72C185.49 11.1384 185.483 11.5554 185.483 11.9738C185.483 17.9346 185.483 23.8954 185.483 29.8561H185.489L185.49 29.8575Z" fill="#5C5C5C"/>
<path d="M167.973 36.1653C167.973 37.0242 167.979 37.8816 167.973 38.7404C167.961 40.5227 167.931 42.3037 167.932 44.086C167.932 45.56 167.969 47.034 167.987 48.5067C167.99 48.7048 167.998 48.9044 167.975 49.0998C167.917 49.5871 167.698 49.7825 167.194 49.821C167.106 49.8279 167.017 49.8238 166.929 49.8238C164.595 49.8238 162.26 49.8238 159.925 49.8238C159.859 49.8238 159.793 49.8252 159.727 49.821C159.24 49.7866 159.061 49.6091 159.027 49.126C159.019 49.0159 159.021 48.9058 159.021 48.7957C159.024 41.2246 159.027 33.655 159.031 26.0839C159.031 25.6669 159.054 25.2526 159.119 24.837C159.363 23.2542 160.413 22.2454 162.06 21.9743C163.764 21.6935 165.438 21.8862 167.084 22.372C167.188 22.4037 167.29 22.4477 167.393 22.4835C167.72 22.595 167.898 22.8303 167.944 23.1606C167.972 23.3547 167.979 23.5543 167.979 23.7511C167.98 27.8882 167.979 32.0254 167.979 36.1626H167.971L167.973 36.1653Z" fill="#5C5C5C"/>
<path d="M80.4956 29.9758C80.5397 28.8156 80.4405 27.5412 80.3455 26.2708C80.2009 24.3426 79.9323 22.4268 79.4942 20.5399C79.4502 20.3472 79.413 20.1518 79.3923 19.955C79.362 19.6687 79.4736 19.4347 79.7188 19.282C79.9846 19.1168 80.2642 19.1127 80.5259 19.2875C80.6527 19.3714 80.7615 19.4856 80.8703 19.5944C83.5962 22.3153 86.3194 25.0377 89.0453 27.76C89.2795 27.994 89.4958 28.2431 89.6624 28.5307C90.2313 29.5106 90.2258 30.4947 89.6707 31.476C89.5082 31.765 89.2933 32.0155 89.0577 32.2495C86.3166 34.9856 83.5769 37.7244 80.8359 40.4605C80.7422 40.5541 80.6499 40.6505 80.5438 40.7262C80.2849 40.912 80.008 40.9175 79.7394 40.7537C79.4722 40.5913 79.3372 40.349 79.3951 40.0311C79.5094 39.4049 79.6292 38.7787 79.7518 38.1538C79.9929 36.9234 80.1595 35.6848 80.2808 34.4364C80.4212 32.9913 80.5218 31.5448 80.4984 29.9745L80.4956 29.9758Z" fill="#5C5C5C"/>
<path d="M163.537 19.2323C161.604 19.213 160.135 18.4794 159.21 16.8815C157.502 13.9294 159.081 9.96424 162.799 9.46051C165.527 9.09166 167.942 10.801 168.369 13.5289C168.829 16.4645 167.019 18.6652 164.428 19.1607C164.106 19.2226 163.771 19.2144 163.537 19.2309V19.2323Z" fill="#5C5C5C"/>
<path d="M58.3081 30.0367C58.2888 38.0936 51.9085 45.0467 43.25 45.0536C34.5102 45.0591 28.1561 37.9381 28.1906 29.9638C28.2264 21.4885 35.2031 14.9276 43.2886 14.962C51.4554 14.9978 58.3067 21.5862 58.3081 30.0367Z" fill="#5C5C5C"/>
<path d="M58.3081 30.0367C58.2888 38.0936 51.9085 45.0467 43.25 45.0536C34.5102 45.0591 28.1561 37.9381 28.1906 29.9638C28.2264 21.4885 35.2031 14.9276 43.2886 14.962C51.4554 14.9978 58.3067 21.5862 58.3081 30.0367Z" fill="#5C5C5C"/>
</g>
<defs>
<clipPath id="clip0_359_862">
<rect width="290" height="60" fill="white"/>
</clipPath>
</defs>
</svg>
