<svg width="223" height="61" viewBox="0 0 223 61" fill="none" xmlns="http://www.w3.org/2000/svg">
<g clip-path="url(#clip0_359_805)">
<path d="M114.377 9.58244C113.218 4.46087 108.739 0.526798 103.685 0.194535C98.1149 -0.171151 93.1968 3.00599 91.3899 8.22193C91.1061 9.04177 90.7042 9.23445 89.9101 9.22855C85.5791 9.19906 81.2481 9.1676 76.9172 9.23051C73.2404 9.2836 70.2099 10.7955 67.8355 13.5991C66.005 15.7598 65.3331 18.3609 64.9764 21.0819C64.5213 24.5461 62.7144 26.748 59.7135 27.1845C58.2021 27.4047 56.6337 27.212 55.0968 27.2887C54.1864 27.3339 53.7313 27.0882 53.4022 26.1543C51.7175 21.3532 47.1875 18.2331 42.096 18.2449C37.166 18.2567 32.5848 21.4594 30.9749 26.1425C30.6537 27.0744 30.2143 27.332 29.2981 27.2907C27.7592 27.2238 26.2124 27.2258 24.6735 27.2907C23.846 27.3261 23.4913 27.0449 23.2194 26.2605C21.2273 20.5235 15.1584 17.1714 9.34762 18.5417C2.92603 20.0576 -0.999038 26.0914 0.22262 32.5715C1.39305 38.7862 7.81267 43.1095 14.0609 41.8749C18.6697 40.9646 21.7297 38.2475 23.2942 33.8593C23.5189 33.2321 23.8262 32.9844 24.4982 33.0001C26.1041 33.0414 27.7139 33.061 29.3198 32.9942C30.2084 32.9568 30.6281 33.2223 30.9355 34.105C32.7897 39.4527 38.2261 42.8363 43.7688 41.985C48.5786 41.2457 51.8692 38.4991 53.5244 33.9123C53.7687 33.236 54.0761 32.9765 54.7815 33.0021C56.0603 33.0453 57.3411 32.9922 58.6199 33.0198C61.5676 33.0866 63.9774 34.9386 64.6848 37.7029C64.9016 38.5522 65.0592 39.4252 65.1558 40.2981C65.871 46.8077 71.3862 51.3905 77.4886 51.0779C78.5172 51.0249 79.0176 51.3276 79.392 52.3618C81.2166 57.389 86.1742 60.9495 92.4342 60.0176C98.706 59.0857 102.826 53.5041 102.491 47.5666C102.087 40.3728 95.2007 35.035 88.1485 36.6098C83.7703 37.5869 80.8442 40.2332 79.2521 44.3973C79.1181 44.7433 78.8167 45.2506 78.5428 45.284C74.328 45.8129 71.4887 43.5067 70.9251 39.8538C70.732 38.5994 70.5192 37.3431 70.2178 36.1124C69.6483 33.7963 68.3557 31.8873 66.6296 30.2594C67.3882 29.2862 68.1528 28.3956 68.8168 27.4362C70.2591 25.3482 70.5567 22.8946 70.9291 20.4763C71.4434 17.1281 73.9478 14.9616 77.3743 14.9537C81.5417 14.9458 85.7092 14.9734 89.8746 14.934C90.7278 14.9242 91.1121 15.17 91.4057 16.0114C93.3623 21.597 98.9445 24.8095 104.804 23.795C111.399 22.6547 115.843 16.0586 114.377 9.58244ZM11.9033 36.2991C8.48852 36.2932 5.74964 33.5408 5.76343 30.1257C5.77526 26.7638 8.62054 23.9602 11.99 23.9877C15.3712 24.0152 18.1298 26.8169 18.1219 30.2122C18.114 33.6135 15.3653 36.305 11.9033 36.2991ZM42.2063 36.2991C38.7108 36.3011 36.0684 33.6587 36.0665 30.1591C36.0665 26.7245 38.8172 23.968 42.2299 23.9877C45.554 24.0054 48.3796 26.8188 48.4052 30.1316C48.4308 33.5034 45.623 36.2972 42.2063 36.2991ZM90.5564 42.0636C93.9534 42.0597 96.7218 44.8436 96.7159 48.2606C96.708 51.7503 94.0618 54.3652 90.5406 54.3593C87.1496 54.3514 84.4008 51.654 84.3634 48.292C84.3259 44.9851 87.2284 42.0656 90.5564 42.0636ZM102.645 18.2409C99.2321 18.237 96.5169 15.4963 96.5209 12.0577C96.5248 8.65446 99.2853 5.91575 102.706 5.92361C106.081 5.93344 108.891 8.75276 108.875 12.1167C108.86 15.4845 106.052 18.2468 102.645 18.2409Z" fill="#5C5C5C"/>
<path d="M187.846 26.3135C187.666 26.2231 187.513 26.0835 187.268 25.9125C187.558 25.7237 187.737 25.5841 187.934 25.4799C193 22.8179 192.395 15.7637 188.34 12.9994C184.496 10.3806 177.846 10.4789 174.122 13.2471C170.205 16.1569 169.661 22.9398 174.8 25.5389C174.965 25.6234 175.111 25.7512 175.406 25.9577C175.095 26.1346 174.936 26.2349 174.768 26.3175C171.602 27.851 169.933 30.3911 169.933 33.8769C169.933 37.4375 171.728 39.9894 174.957 41.401C179.014 43.1744 183.203 43.2058 187.306 41.5996C190.608 40.3079 192.525 37.7992 192.644 34.1876C192.762 30.5681 191.107 27.9355 187.846 26.3135ZM181.41 15.4413C183.877 15.4747 185.566 17.1557 185.564 19.5818C185.564 22.0531 183.848 23.7144 181.31 23.6967C178.776 23.679 177.05 22.0039 177.052 19.566C177.052 17.0711 178.813 15.4059 181.41 15.4413ZM181.318 38.1413C178.344 38.1118 176.307 36.1182 176.327 33.2537C176.344 30.4167 178.35 28.5312 181.341 28.5391C184.344 28.547 186.269 30.4717 186.252 33.4464C186.234 36.2401 184.206 38.1708 181.318 38.1413Z" fill="#5C5C5C"/>
<path d="M145.186 18.3748C145.385 19.3402 145.565 20.2209 145.791 21.32C146.148 21.0015 146.367 20.8383 146.546 20.6397C149.389 17.5157 152.932 17.2581 156.662 18.4043C160.225 19.4994 161.974 22.2499 162.329 25.8006C162.581 28.327 162.496 30.8907 162.52 33.4368C162.546 36.3111 162.526 39.1855 162.526 42.1464H156.422C156.422 41.7709 156.422 41.4209 156.422 41.0709C156.422 37.2135 156.433 33.3561 156.412 29.4988C156.408 28.6868 156.359 27.8551 156.183 27.0667C155.606 24.4755 153.567 22.9577 150.973 23.1091C148.089 23.2762 146.024 25.1734 145.837 28.0635C145.683 30.4405 145.746 32.8332 145.732 35.218C145.718 37.5006 145.73 39.7832 145.73 42.2171C143.758 42.2171 141.872 42.225 139.986 42.2014C139.862 42.2014 139.681 41.9793 139.636 41.8279C139.573 41.6175 139.608 41.3757 139.608 41.1456C139.608 33.8889 139.608 26.6322 139.608 19.3755C139.608 19.057 139.608 18.7405 139.608 18.3748H145.19H145.186Z" fill="#5C5C5C"/>
<path d="M206.222 42.1718H200.175V18.3865H205.658C205.857 19.3046 206.053 20.211 206.291 21.3159C206.64 20.9974 206.856 20.8244 207.042 20.6238C209.828 17.5784 213.294 17.2835 216.977 18.3511C220.519 19.3774 222.295 22.0217 222.785 25.5272C223.016 27.1669 222.976 28.8498 222.986 30.5131C223.012 34.3665 222.994 38.222 222.994 42.1541H216.896V41.0767C216.896 37.2527 216.896 33.4287 216.896 29.6048C216.896 29.1801 216.906 28.7535 216.872 28.3308C216.62 25.0494 214.638 23.0617 211.662 23.1011C208.557 23.1423 206.334 25.2971 206.265 28.5372C206.179 32.6541 206.23 36.773 206.222 40.8899C206.222 41.2792 206.222 41.6685 206.222 42.1698V42.1718Z" fill="#5C5C5C"/>
</g>
<defs>
<clipPath id="clip0_359_805">
<rect width="223" height="60" fill="white" transform="translate(0 0.165039)"/>
</clipPath>
</defs>
</svg>
