<svg width="297" height="61" viewBox="0 0 297 61" fill="none" xmlns="http://www.w3.org/2000/svg">
<g clip-path="url(#clip0_357_728)">
<path d="M197.272 0.189941H248.83V9.69014H228.377V59.6694H218.15V9.69014H197.272V0.189941Z" fill="#5C5C5C"/>
<path d="M112.478 0.189941V9.69014H71.151V24.973H104.386V34.4732H71.151V50.1692H112.478V59.6694H60.9247V9.69014H60.9204V0.189941H112.478Z" fill="#5C5C5C"/>
<path d="M138.223 0.214844H124.84L172.775 59.6943H186.197L162.227 29.975L186.159 0.260223L172.775 0.28087L155.526 21.6675L138.223 0.214844Z" fill="#5C5C5C"/>
<path d="M151.956 42.7013L145.254 34.3823L124.801 59.7396H138.223L151.956 42.7013Z" fill="#5C5C5C"/>
<path fill-rule="evenodd" clip-rule="evenodd" d="M61.2829 59.6693L13.2829 0.165039H0.5V59.6445H10.7263V12.8787L48.436 59.6693H61.2829Z" fill="#5C5C5C"/>
<path d="M251.129 59.306C250.38 59.306 249.743 59.0471 249.209 58.529C248.676 58.011 248.412 57.3839 248.419 56.6409C248.412 55.9184 248.676 55.298 249.209 54.78C249.743 54.262 250.38 54.0029 251.129 54.0029C251.849 54.0029 252.479 54.262 253.013 54.78C253.554 55.298 253.823 55.9184 253.831 56.6409C253.823 57.1316 253.699 57.5815 253.449 57.9836C253.193 58.3927 252.868 58.7131 252.458 58.9448C252.056 59.1834 251.613 59.306 251.129 59.306Z" fill="#5C5C5C"/>
<path d="M268.583 34.249H273.115V51.6785C273.108 53.2803 272.761 54.6504 272.082 55.8024C271.396 56.9544 270.447 57.8336 269.228 58.4539C268.015 59.0673 266.594 59.381 264.98 59.381C263.504 59.381 262.181 59.1151 261.003 58.5971C259.825 58.0791 258.889 57.302 258.203 56.2795C257.51 55.257 257.17 53.9824 257.17 52.4556H261.71C261.716 53.1236 261.869 53.7029 262.16 54.1869C262.45 54.6708 262.852 55.0389 263.365 55.2979C263.885 55.557 264.481 55.6865 265.153 55.6865C265.881 55.6865 266.504 55.5365 267.01 55.2297C267.515 54.9298 267.904 54.48 268.174 53.8801C268.437 53.2872 268.576 52.551 268.583 51.6785V34.249Z" fill="#5C5C5C"/>
<path d="M291.76 41.0654C291.65 40.0089 291.165 39.1841 290.319 38.5979C289.467 38.0049 288.365 37.7118 287.014 37.7118C286.065 37.7118 285.248 37.8549 284.568 38.1344C283.889 38.4207 283.363 38.8023 283.002 39.2863C282.642 39.7703 282.462 40.3224 282.448 40.9428C282.448 41.4608 282.572 41.9106 282.815 42.2856C283.058 42.6672 283.383 42.9876 283.806 43.2467C284.221 43.5125 284.686 43.7306 285.192 43.9078C285.704 44.085 286.217 44.235 286.73 44.3577L289.093 44.9371C290.042 45.1552 290.964 45.4484 291.844 45.8232C292.723 46.1913 293.521 46.6617 294.22 47.2274C294.92 47.7932 295.475 48.4748 295.883 49.2723C296.292 50.0698 296.5 51.0036 296.5 52.0806C296.5 53.5325 296.126 54.8072 295.37 55.9114C294.615 57.0088 293.527 57.8677 292.1 58.488C290.679 59.1015 288.961 59.415 286.938 59.415C284.984 59.415 283.279 59.1152 281.845 58.5153C280.404 57.9223 279.281 57.0498 278.47 55.9046C277.66 54.7595 277.223 53.3621 277.161 51.7194H281.651C281.714 52.5782 281.991 53.294 282.462 53.8734C282.94 54.4459 283.563 54.8685 284.326 55.1548C285.095 55.4343 285.954 55.5774 286.903 55.5774C287.894 55.5774 288.767 55.4274 289.522 55.1343C290.271 54.8412 290.86 54.4323 291.282 53.9007C291.712 53.3757 291.927 52.7555 291.934 52.0466C291.927 51.399 291.733 50.8605 291.358 50.4378C290.977 50.0153 290.451 49.6608 289.778 49.3746C289.1 49.0883 288.31 48.8292 287.409 48.6043L284.541 47.8818C282.469 47.3569 280.826 46.5594 279.627 45.4893C278.422 44.4191 277.826 43.0013 277.826 41.2222C277.826 39.7635 278.228 38.4821 279.039 37.3846C279.842 36.2872 280.944 35.4351 282.337 34.8285C283.737 34.215 285.317 33.915 287.076 33.915C288.864 33.915 290.43 34.215 291.781 34.8285C293.132 35.4351 294.193 36.2804 294.961 37.3573C295.731 38.4343 296.133 39.6681 296.154 41.0654H291.76Z" fill="#5C5C5C"/>
</g>
<defs>
<clipPath id="clip0_357_728">
<rect width="296" height="60" fill="white" transform="translate(0.5 0.165039)"/>
</clipPath>
</defs>
</svg>
