<svg width="293" height="60" viewBox="0 0 293 60" fill="none" xmlns="http://www.w3.org/2000/svg">
<path d="M67.0454 14.0503H82.0628C92.9302 14.0503 95.6829 20.4488 95.6829 25.6638C95.6829 30.8789 92.8687 37.2774 82.0628 37.2774H72.7976V55.5702H67.0454V14.0503ZM72.7976 32.3432H80.3781C84.9386 32.3432 89.4992 31.3001 89.4992 25.6638C89.4992 20.0276 84.9386 18.9845 80.3781 18.9845H72.7976V32.3432Z" fill="#5C5C5C"/>
<path d="M103.203 13.8506C105.374 13.852 107.14 15.5574 107.166 17.6767C107.19 19.796 105.466 21.5411 103.296 21.5919C101.126 21.6427 99.3176 19.9803 99.2385 17.8622C99.2055 16.813 99.6076 15.7951 100.354 15.0397C101.1 14.2843 102.128 13.8555 103.203 13.8506ZM100.553 27.771H105.895V55.5717H100.553V27.771Z" fill="#5C5C5C"/>
<path d="M112.075 27.7717H117.478V32.064H117.601C119.485 28.7833 123.124 26.8431 126.969 27.0696C132.495 27.0696 137.241 30.2989 137.241 37.6801V55.5715H131.9V39.1644C131.9 33.9294 128.839 32.0038 125.408 32.0038C120.909 32.0038 117.478 34.8119 117.478 41.2704V55.5715H112.075V27.7717Z" fill="#5C5C5C"/>
<path d="M147.145 43.6171C147.145 48.4714 151.767 51.6408 156.759 51.6408C159.891 51.5519 162.791 50.0093 164.566 47.4885L168.674 50.5375C165.691 54.3801 160.951 56.5289 156.02 56.2745C147.001 56.2745 141.372 49.9558 141.372 41.6713C141.213 37.8052 142.694 34.0463 145.467 31.282C148.24 28.5177 152.057 26.9931 156.02 27.0681C166.044 27.0681 169.886 34.5703 169.886 41.7315V43.6171H147.145ZM164.237 39.3845C164.114 34.7509 161.463 31.3608 156.02 31.3608C151.364 31.3298 147.49 34.8481 147.186 39.3845H164.237Z" fill="#5C5C5C"/>
<path d="M194.416 35.1734C192.658 33.1432 190.051 32.0001 187.329 32.0644C181.453 32.0644 178.433 36.6978 178.433 41.9128C178.285 44.3796 179.191 46.7958 180.935 48.5862C182.68 50.3766 185.106 51.381 187.637 51.36C190.311 51.4476 192.872 50.2946 194.539 48.2511L198.381 51.9618C195.586 54.8509 191.642 56.4102 187.576 56.2341C183.578 56.4306 179.681 54.9701 176.844 52.2124C174.008 49.4548 172.496 45.6562 172.681 41.7523C172.501 37.8334 174.007 34.0193 176.836 31.2339C179.666 28.4486 183.56 26.946 187.576 27.09C191.689 26.9881 195.656 28.5827 198.504 31.4827L194.416 35.1734Z" fill="#5C5C5C"/>
<path d="M214.362 27.0689C222.589 27.2013 229.161 33.7961 229.071 41.8284C228.981 49.8607 222.262 56.3135 214.036 56.2703C205.808 56.2268 199.162 49.7033 199.161 41.6706C199.16 37.7559 200.769 34.005 203.628 31.2596C206.486 28.5142 210.353 27.0043 214.362 27.0689ZM214.362 51.3583C220.115 51.3583 223.73 47.3468 223.73 41.6706C223.73 35.9944 220.115 32.003 214.362 32.003C208.611 32.003 204.974 36.0145 204.974 41.6706C204.974 47.3268 208.59 51.3583 214.362 51.3583Z" fill="#5C5C5C"/>
<path d="M233.878 27.7706H239.282V32.0631C241.172 28.7791 244.819 26.8392 248.67 27.0686C254.197 27.0686 258.942 30.298 258.942 37.6792V55.5707H253.539V39.1635C253.539 33.9284 250.478 32.0028 247.068 32.0028C242.548 32.0028 239.138 34.811 239.138 41.2695V55.5707H233.878V27.7706Z" fill="#5C5C5C"/>
<path d="M269.008 43.6156C269.008 48.4698 273.63 51.639 278.622 51.639C281.751 51.5405 284.647 50.0002 286.429 47.4869L290.537 50.5358C287.552 54.3462 282.831 56.4708 277.924 56.2123C268.926 56.2123 263.276 49.8939 263.276 41.6098C263.116 37.7333 264.606 33.9648 267.392 31.1987C270.178 28.4327 274.013 26.9155 277.985 27.0074C288.031 27.0074 291.873 34.5092 291.873 41.67V43.5555L269.008 43.6156ZM286.059 39.3833C285.936 34.7499 283.306 31.36 277.842 31.36C273.181 31.3189 269.302 34.8425 269.008 39.3833H286.059Z" fill="#5C5C5C"/>
<path fill-rule="evenodd" clip-rule="evenodd" d="M34.5612 1.76708C33.9964 1.09372 33.032 0.920735 32.2691 1.35596L31.5563 1.76258L31.5472 1.7609L31.5457 1.76857L23.8685 6.14802L25.6682 9.31354L30.6825 6.45323L29.449 13.1467L33.0254 13.808L34.2656 7.07787L37.959 11.4814L40.7436 9.13809L35.1213 2.43477L35.1235 2.42215L35.1083 2.41933L34.5612 1.76708ZM23.7388 58.2999C25.5882 58.2999 27.0874 56.8361 27.0874 55.0304C27.0874 53.2247 25.5882 51.7609 23.7388 51.7609C21.8895 51.7609 20.3903 53.2247 20.3903 55.0304C20.3903 56.8361 21.8895 58.2999 23.7388 58.2999ZM28.2423 40.3574L27.0359 47.0953L23.4561 46.4523L24.6549 39.7572L19.6584 42.631L17.8474 39.4719L25.4934 35.0742L25.495 35.0645L25.5065 35.0666L26.2243 34.6538C26.9844 34.2165 27.9478 34.3847 28.5154 35.0538L29.0693 35.7066L29.0748 35.7076L29.074 35.7122L34.7467 42.3988L31.9753 44.7578L28.2423 40.3574ZM31.1393 24.2738L29.9337 31.0074L26.354 30.3644L27.5482 23.6943L22.5676 26.5446L20.7635 23.3816L28.3851 19.0198L28.3929 18.976L28.4452 18.9853L29.1422 18.5865C29.9024 18.1515 30.8639 18.3207 31.4305 18.9891L31.963 19.6173L31.9726 19.619L31.9712 19.6269L37.6406 26.3151L34.8683 28.6729L31.1393 24.2738ZM7.66681 50.8581L7.64681 50.8718L7.63048 50.8476L6.88879 50.6343C6.10405 50.4086 5.58456 49.663 5.64374 48.8473L6.30299 39.7622L9.74586 40.0129L9.34474 45.5403L14.7085 41.8964L16.6461 44.758L11.387 48.3308L16.7523 49.8741L15.7995 53.1974L7.66681 50.8581ZM43.2391 54.6333L43.2395 54.6339L43.2388 54.6344L42.9968 55.4317C42.7634 56.2007 42.0317 56.7071 41.2311 56.6538L40.475 56.6036L40.4266 56.638L40.3986 56.5985L31.9695 56.0379L32.1982 52.5878L37.8158 52.9615L34.1528 47.8031L36.9656 45.799L40.7115 51.0738L42.3327 45.7321L45.6354 46.7378L43.2391 54.6333ZM53.1192 35.8817L53.1298 35.8836L53.1274 35.8966L53.5291 36.6174C53.9408 37.3561 53.7731 38.2833 53.1288 38.8303L52.5215 39.346L52.5173 39.37L52.4973 39.3665L45.9465 44.9288L43.6613 42.2285L47.9714 38.5687L41.5178 37.4312L42.1303 33.9448L48.6308 35.0906L45.9047 30.1987L48.9906 28.4733L53.1192 35.8817ZM46.4766 20.6864L40.647 23.8284L38.9724 20.7111L44.7017 17.6231L39.4357 15.4895L40.7609 12.2078L48.7462 15.4431L48.7818 15.424L48.8049 15.4669L49.5276 15.7598C50.3034 16.0741 50.7527 16.8905 50.6039 17.7154L50.4553 18.5392L50.4565 18.5413L50.4547 18.5422L48.9543 26.8583L45.4766 26.2288L46.4766 20.6864ZM7.39549 27.9886L13.8625 29.0908L13.2696 32.5806L6.74708 31.4689L9.52853 36.3782L6.45495 38.1254L2.24914 30.7023L2.24616 30.7018L2.24678 30.6981L1.84385 29.987C1.42706 29.2514 1.58812 28.3232 2.22827 27.7715L2.83237 27.251L2.839 27.212L2.87126 27.2175L9.34057 21.6429L11.6454 24.3265L7.39549 27.9886ZM17.1642 12.8948L21.4675 17.6967L18.8375 20.0614L14.4346 15.1482L13.4095 20.7447L9.93338 20.1059L11.4513 11.8192L11.4437 11.8107L11.4547 11.8008L11.6082 10.9629C11.7571 10.1498 12.4481 9.54826 13.2728 9.51386L14.0333 9.48217L14.0735 9.44601L14.1034 9.47924L22.7421 9.11938L22.889 12.6563L17.1642 12.8948Z" fill="#5C5C5C"/>
</svg>
