<svg width="158" height="61" viewBox="0 0 158 61" fill="none" xmlns="http://www.w3.org/2000/svg">
<g clip-path="url(#clip0_358_743)">
<path d="M108.405 60.1652H157.247V57.3545H108.405V60.1652Z" fill="#5C5C5C"/>
<path d="M54.4419 60.1652H103.283V57.3545H54.4419V60.1652Z" fill="#5C5C5C"/>
<path d="M0.507324 60.1652H49.3492V57.3545H0.507324V60.1652Z" fill="#5C5C5C"/>
<path d="M108.405 49.2191H157.247V0.165039H108.405V49.2191Z" fill="#5C5C5C"/>
<path d="M0.507324 49.2191H49.3492V0.165039H0.507324V49.2191Z" fill="#5C5C5C"/>
<path d="M54.4419 49.2191H103.283V0.165039H54.4419V49.2191Z" fill="#5C5C5C"/>
<path d="M148.255 15.8112C148.255 13.2619 146.199 11.1968 143.66 11.1968H121.991C119.453 11.1968 117.396 13.2619 117.396 15.8112V33.3994C117.396 35.9491 119.453 38.0142 121.991 38.0142H143.66C146.199 38.0142 148.255 35.9491 148.255 33.4014V22.634H132.587V27.2485H142.47V33.4014H123.183V15.8111H142.47V18.6663H148.255V15.8112Z" fill="#04100E"/>
<path fill-rule="evenodd" clip-rule="evenodd" d="M34.0716 28.3332C36.6099 28.3332 38.6661 26.2681 38.6661 23.7183V15.8112C38.6661 13.2619 36.6099 11.1968 34.0716 11.1968H10.2129V38.0142H15.9973V15.8076H31.7326C32.3658 15.8076 32.8797 16.3241 32.8797 16.9617V22.5642C32.8797 23.2022 32.3658 23.7182 31.7326 23.7182H22.047V28.3332L32.8796 38.0446H40.9855L29.5301 28.3332L34.0716 28.3332Z" fill="#04100E"/>
<path fill-rule="evenodd" clip-rule="evenodd" d="M72.6902 27.604L78.523 16.3865L84.3553 27.604H72.6902ZM89.7666 38.0142H96.4884L81.4152 11.1968H75.6288L60.5571 38.0142H67.2795L70.2927 32.2204H86.7535L89.7667 38.0142H89.7666Z" fill="#04100E"/>
</g>
<defs>
<clipPath id="clip0_358_743">
<rect width="157" height="60" fill="white" transform="translate(0.5 0.165039)"/>
</clipPath>
</defs>
</svg>
