<svg width="81" height="81" viewBox="0 0 81 81" fill="none" xmlns="http://www.w3.org/2000/svg">
<path d="M64.6656 28.4027C63.8667 28.1298 63.062 27.8756 62.2516 27.6402C62.3859 27.0933 62.5099 26.5433 62.6234 25.9902C64.4516 17.0996 63.2562 9.93709 59.1766 7.57928C55.2703 5.31678 48.8641 7.67459 42.4016 13.3121C41.7661 13.8683 41.1437 14.4413 40.5344 15.0308C40.1281 14.6392 39.7115 14.2558 39.2844 13.8808C32.5109 7.85272 25.7219 5.31366 21.6469 7.67928C17.7406 9.94647 16.5797 16.6793 18.225 25.1058C18.3896 25.9392 18.5745 26.7689 18.7797 27.5949C17.8187 27.8683 16.8906 28.1605 16.0031 28.4699C8.07188 31.2433 3 35.5918 3 40.1012C3 44.7605 8.44375 49.4324 16.7141 52.2652C17.3849 52.4933 18.062 52.7053 18.7453 52.9012C18.5234 53.7855 18.3271 54.6798 18.1562 55.584C16.5938 63.8652 17.8125 70.4387 21.7109 72.6918C25.7375 75.0183 32.4922 72.6277 39.0766 66.8621C39.5974 66.4058 40.1182 65.9241 40.6391 65.4168C41.2974 66.0532 41.9745 66.6709 42.6703 67.2699C49.0453 72.7668 55.3406 74.9871 59.2328 72.7277C63.2563 70.3933 64.5641 63.3308 62.8656 54.7387C62.7354 54.0824 62.5854 53.4126 62.4156 52.7293C62.8906 52.5887 63.3557 52.4433 63.8109 52.2933C72.4047 49.4387 78.0031 44.823 78.0031 40.1058C78 35.5746 72.7656 31.198 64.6656 28.4027ZM44.5094 15.734C50.0453 10.9043 55.2203 8.99803 57.5797 10.3605C60.0906 11.8121 61.0672 17.6652 59.4891 25.3418C59.3849 25.8418 59.2724 26.3402 59.1516 26.8371C55.8479 26.0856 52.4977 25.5553 49.1234 25.2496C47.1915 22.4666 45.0736 19.8173 42.7844 17.3199C43.3448 16.7762 43.9188 16.2475 44.5063 15.734H44.5094ZM25.1453 43.9543C25.8234 45.2668 26.5323 46.5631 27.2719 47.8433C28.025 49.1496 28.8099 50.4366 29.6266 51.7043C27.3048 51.4519 24.9976 51.08 22.7141 50.5902C23.3766 48.4465 24.1922 46.2199 25.1453 43.9543ZM25.1453 36.4027C24.2078 34.1855 23.4141 32.0043 22.7625 29.898C24.9031 29.4183 27.1844 29.0262 29.5625 28.7293C28.7656 29.973 27.999 31.235 27.2625 32.5152C26.526 33.7954 25.8188 35.0913 25.1406 36.4027H25.1453ZM26.8484 40.1793C27.8359 38.1199 28.8995 36.1001 30.0391 34.1199C31.1776 32.1407 32.3896 30.2069 33.675 28.3183C35.9062 28.1496 38.1937 28.0605 40.5047 28.0605C42.8156 28.0605 45.1172 28.1496 47.3469 28.3199C48.6188 30.2043 49.8234 32.1314 50.9609 34.1012C52.0984 36.0709 53.176 38.0814 54.1938 40.1324C53.1896 42.1991 52.1146 44.2272 50.9688 46.2168C49.8323 48.1959 48.6344 50.1355 47.375 52.0355C45.1484 52.1918 42.8438 52.2777 40.5 52.2777C38.1562 52.2777 35.8953 52.2043 33.7094 52.0621C32.4146 50.1673 31.1927 48.2251 30.0438 46.2355C28.8948 44.2459 27.8281 42.2272 26.8438 40.1793H26.8484ZM53.7422 47.8215C54.4974 46.5111 55.2224 45.1834 55.9172 43.8387C56.8696 45.9982 57.7103 48.2053 58.4359 50.4512C56.1256 50.9714 53.7896 51.3704 51.4375 51.6465C52.2313 50.3871 52.9995 49.1121 53.7422 47.8215ZM55.8859 36.4043C55.1943 35.0866 54.475 33.7845 53.7281 32.498C52.999 31.2293 52.2391 29.9762 51.4484 28.7387C53.8406 29.0418 56.1359 29.4449 58.2875 29.9371C57.5957 32.1317 56.7942 34.2901 55.8859 36.4043ZM40.5359 19.6152C42.0962 21.3201 43.5694 23.1025 44.95 24.9558C41.9969 24.8152 39.0417 24.8152 36.0844 24.9558C37.5422 23.0277 39.0344 21.2387 40.5359 19.6152ZM23.2594 10.4558C25.7688 8.99959 31.3172 11.0808 37.1656 16.2793C37.5391 16.6121 37.9156 16.9605 38.2906 17.3215C35.9896 19.8185 33.8568 22.4655 31.9062 25.2449C28.5395 25.5483 25.1959 26.0702 21.8969 26.8074C21.7063 26.0407 21.5344 25.2689 21.3813 24.4918C19.9672 17.2683 20.9031 11.823 23.2594 10.4558ZM19.6016 49.8074C18.9766 49.6293 18.3594 49.4361 17.75 49.2277C14.0938 47.9777 11.0734 46.3465 9 44.5699C7.14375 42.9777 6.20312 41.3887 6.20312 40.1012C6.20312 37.3652 10.275 33.8746 17.0656 31.5074C17.9187 31.2105 18.7792 30.9392 19.6469 30.6933C20.6554 33.9344 21.8768 37.1054 23.3031 40.1855C21.8598 43.3083 20.6233 46.5225 19.6016 49.8074ZM36.9656 64.4433C34.0547 66.9933 31.1391 68.8012 28.5688 69.7121C26.2594 70.5293 24.4203 70.5527 23.3094 69.9105C20.9437 68.5433 19.9594 63.2637 21.3016 56.1824C21.4609 55.3491 21.6432 54.5157 21.8484 53.6824C25.1805 54.4002 28.5576 54.8904 31.9563 55.1496C33.9259 57.9435 36.0763 60.6054 38.3937 63.1183C37.9281 63.5762 37.4516 64.0168 36.9656 64.4433ZM40.625 60.8152C39.1062 59.173 37.5906 57.3558 36.1125 55.4027C37.549 55.459 39.0115 55.4871 40.5 55.4871C42.0281 55.4871 43.5406 55.4543 45.0312 55.3871C43.6557 57.2701 42.185 59.0819 40.625 60.8152ZM60.0813 65.2824C59.6344 67.6949 58.7359 69.3043 57.625 69.948C55.2609 71.3199 50.2062 69.5371 44.7562 64.8355C44.1312 64.298 43.5063 63.7215 42.8703 63.1168C45.1426 60.5941 47.2427 57.9214 49.1562 55.1168C52.5737 54.8272 55.9672 54.3026 59.3125 53.5465C59.4656 54.1652 59.601 54.7715 59.7188 55.3652C60.4703 59.1621 60.5781 62.5965 60.0813 65.2824ZM62.8 49.2449C62.3906 49.3808 61.9688 49.5121 61.5406 49.6402C60.4916 46.3839 59.2226 43.2026 57.7422 40.1183C59.167 37.0752 60.3864 33.9401 61.3922 30.734C62.1594 30.9574 62.9047 31.1918 63.6219 31.4402C70.5625 33.834 74.7969 37.3777 74.7969 40.1012C74.7969 43.0074 70.2234 46.7793 62.8 49.2449Z" fill="#5C5C5C"/>
<path d="M40.5001 46.8134C41.8299 46.8178 43.131 46.4274 44.2388 45.6918C45.3466 44.9561 46.2111 43.9083 46.723 42.681C47.2349 41.4537 47.3711 40.1021 47.1143 38.7974C46.8575 37.4926 46.2194 36.2934 45.2806 35.3516C44.3418 34.4098 43.1447 33.7677 41.8408 33.5067C40.5369 33.2457 39.1849 33.3774 37.9559 33.8853C36.7269 34.3932 35.6763 35.2543 34.9371 36.3597C34.1978 37.4651 33.8032 38.7649 33.8032 40.0947C33.8014 40.9757 33.9732 41.8484 34.3088 42.663C34.6444 43.4775 35.1373 44.218 35.7593 44.842C36.3812 45.4659 37.12 45.9612 37.9335 46.2995C38.747 46.6378 39.6191 46.8124 40.5001 46.8134Z" fill="#5C5C5C"/>
</svg>
