<svg width="298" height="61" viewBox="0 0 298 61" fill="none" xmlns="http://www.w3.org/2000/svg">
<g clip-path="url(#clip0_358_782)">
<path d="M22.65 0.165039C24.502 0.756491 25.9699 1.73865 26.5462 3.74181C27.2629 6.23714 25.7734 8.92457 23.2414 9.61316C20.677 10.3104 17.9485 8.7303 17.2664 6.24577C16.4375 3.21944 18.8444 0.737064 20.8777 0.365787C21.044 0.335567 21.1972 0.234114 21.3548 0.165039C21.7865 0.165039 22.2182 0.165039 22.65 0.165039Z" fill="#5C5C5C"/>
<path d="M18.1796 30.2191C11.9218 26.5689 11.9909 20.1385 15.0561 16.5078C17.1715 14.0017 19.8697 12.9483 23.0925 13.3239C26.2851 13.6952 28.4976 15.5666 30.1123 18.4268C31.7809 15.4997 34.015 13.6304 37.2766 13.3023C39.7353 13.0541 42.0277 13.598 43.9057 15.2515C46.2628 17.328 47.5062 19.8989 47.0788 23.139C46.66 26.3229 44.89 28.5548 41.991 30.2256C45.3454 32.0863 47.1846 34.7888 47.191 38.4304C47.1954 40.9451 46.1506 43.1598 44.2208 44.8608C41.9888 46.8273 39.3813 47.6669 36.4564 47.0086C33.6308 46.3718 31.524 44.6665 30.1425 41.9769C27.74 45.9509 24.4503 47.9713 19.9151 46.9244C16.293 46.089 13.925 43.652 13.217 39.9997C12.3686 35.6307 14.402 32.5007 18.1817 30.2191H18.1796ZM30.2439 34.2557C30.7922 33.5649 31.3448 32.7231 32.0442 32.0302C32.7371 31.3437 33.579 30.8084 34.192 30.3335C32.7544 28.8894 31.3535 27.482 30.1231 26.2452C28.7912 27.5662 27.3968 28.952 26.1232 30.217C27.4227 31.4905 28.8236 32.8634 30.2461 34.2557H30.2439Z" fill="#5C5C5C"/>
<path d="M105.775 35.0068C106.065 34.8104 106.224 34.6657 106.41 34.5816C112.26 31.8963 113.909 25.1917 112.234 19.8945C110.723 15.1176 106.485 12.0179 100.985 11.6444C95.9084 11.3012 90.7903 11.5387 85.6896 11.5236C85.6292 11.5236 85.5687 11.584 85.4521 11.6488V49.5492H94.0455V36.4336C96.5257 36.0213 96.6703 36.0645 97.8856 37.9943C100.156 41.5969 102.421 45.2061 104.653 48.8347C105.013 49.4218 105.393 49.6571 106.101 49.6442C108.903 49.5988 111.705 49.629 114.509 49.6226C114.77 49.6226 115.033 49.5751 115.398 49.5405C112.152 44.6362 108.976 39.842 105.775 35.0068ZM99.5046 29.2024C97.7453 29.3923 95.9494 29.2369 94.1016 29.2369V18.4742C95.9645 18.4742 97.7302 18.3468 99.47 18.5044C102.3 18.7591 103.977 20.7278 103.997 23.549C104.023 27.1021 102.714 28.8548 99.5046 29.2024Z" fill="#5C5C5C"/>
<path d="M283.384 49.0158C279.268 36.7443 275.14 24.4749 271.039 12.199C270.838 11.6011 270.525 11.4608 269.949 11.4651C266.86 11.4845 263.771 11.4867 260.68 11.4586C260.043 11.4522 259.739 11.6615 259.54 12.2811C258.64 15.0635 257.686 17.8286 256.756 20.6002C253.615 29.9707 250.474 39.3389 247.338 48.7093C247.245 48.9878 247.195 49.2792 247.12 49.5943H256.026C256.702 47.3429 257.397 45.1023 258.031 42.8466C258.234 42.1278 258.519 41.7932 259.348 41.804C263.264 41.8493 267.179 41.8386 271.095 41.8105C271.784 41.8062 272.092 42.0048 272.282 42.6998C272.85 44.7591 273.493 46.799 274.162 48.8281C274.266 49.1454 274.663 49.5857 274.933 49.59C277.765 49.6462 280.599 49.6246 283.47 49.6246C283.436 49.3655 283.44 49.1799 283.384 49.0158ZM260.563 34.7714C262.115 29.1677 263.648 23.6395 265.204 18.0207C266.752 23.6503 268.274 29.1828 269.811 34.7714H260.563Z" fill="#5C5C5C"/>
<path d="M144.46 32.3559C144.321 29.7721 143.762 27.2508 142.105 25.1225C139.918 22.3141 136.971 21.0794 133.479 20.7103C128.231 20.1577 122.902 22.7264 120.527 27.4127C118.049 32.3062 118.174 37.3638 120.296 42.3501C121.147 44.3468 122.524 46.0629 124.359 47.2587C129.766 50.7837 135.536 50.4038 141.407 48.6726C142.517 48.3445 142.905 47.7142 142.815 46.5572C142.705 45.1325 142.793 43.6928 142.784 42.2595C142.782 42.0026 142.728 41.7479 142.689 41.4241C139.572 43.3841 136.307 44.0619 132.812 43.3798C130.062 42.8444 128.069 41.3421 127.076 38.4819H144.237C144.328 36.3428 144.565 34.3396 144.46 32.3559ZM126.776 32.6171C127.066 30.493 127.927 28.7726 129.699 27.6264C131.322 26.5752 133.112 26.4155 134.776 27.4516C136.62 28.6021 136.84 30.5556 136.967 32.6171H126.776Z" fill="#5C5C5C"/>
<path d="M196.892 31.281C196.592 27.6546 195.035 24.6347 191.882 22.5927C188.955 20.6975 185.715 20.3521 182.371 20.8551C178.246 21.4789 175.047 23.6353 173.117 27.3135C170.671 31.9804 170.689 36.8588 172.564 41.7264C173.691 44.6491 175.755 46.7991 178.522 48.2583C181.833 50.0024 185.417 50.1211 189.009 49.7132C190.867 49.5016 192.678 48.8692 194.506 48.4094C195.07 48.2669 195.271 47.8848 195.253 47.2869C195.212 45.8558 195.236 44.4203 195.245 42.987C195.245 42.5121 195.286 42.0351 195.307 41.5623C193.978 42.1106 192.799 42.7237 191.547 43.0842C188.683 43.9109 185.812 43.9519 183.072 42.5834C181.38 41.7394 180.195 40.4312 179.623 38.4583H196.926C196.926 35.9695 197.084 33.6101 196.892 31.281ZM189.388 32.5891H179.243C179.8 29.9427 180.907 27.8251 183.59 27.0135C186.584 26.1069 189.05 27.9525 189.384 31.2594C189.425 31.6782 189.388 32.1034 189.388 32.5891Z" fill="#5C5C5C"/>
<path d="M151.922 26.8517H147.876V20.9933H151.924C151.924 19.3118 151.924 17.79 151.924 16.266C151.924 15.7652 151.868 15.2515 151.954 14.7658C151.995 14.5348 152.304 14.1765 152.496 14.1722C155.004 14.1312 157.515 14.1463 160.18 14.1463V20.935H166.848V26.8128H160.271C160.245 27.3266 160.211 27.7087 160.211 28.0886C160.206 31.9222 160.204 35.758 160.208 39.5917C160.211 42.6806 161.849 43.9736 164.925 43.2807C165.717 43.1015 166.486 42.8274 167.397 42.5576C167.397 44.5823 167.41 46.5725 167.377 48.5606C167.373 48.77 167.12 49.1132 166.924 49.1628C163.017 50.173 159.131 50.4623 155.501 48.2692C153.098 46.8186 152.228 44.3837 152.118 41.7826C151.928 37.2777 151.976 32.7641 151.924 28.2526C151.92 27.8317 151.924 27.4086 151.924 26.8474L151.922 26.8517Z" fill="#5C5C5C"/>
<path d="M227.431 49.5795H219.321V9.64355H227.431V49.5795Z" fill="#5C5C5C"/>
<path d="M289.551 11.5259H298V49.5429H289.551V11.5259Z" fill="#5C5C5C"/>
<path d="M203.527 9.63916H211.533V49.5535H203.527V9.63916Z" fill="#5C5C5C"/>
<path d="M55.3461 26.8408C52.7687 26.83 50.636 24.7124 50.6101 22.1329C50.5821 19.4692 52.7601 17.2869 55.4454 17.2891C58.0983 17.2891 60.1964 19.4002 60.2029 22.0725C60.2094 24.816 58.135 26.8516 55.3461 26.8408Z" fill="#5C5C5C"/>
<path d="M1.41658e-05 38.2921C0.00648994 35.7018 2.2212 33.5065 4.81799 33.5152C7.40182 33.5238 9.70072 35.8486 9.66834 38.4216C9.63812 40.8803 7.26151 43.1684 4.74028 43.1727C2.20825 43.1748 -0.00646161 40.8954 1.41658e-05 38.2921Z" fill="#5C5C5C"/>
<path d="M38.2158 60.1651C35.6341 60.1565 33.454 57.9504 33.4453 55.3364C33.4367 52.8475 35.7334 50.5529 38.2763 50.5141C40.7155 50.4774 43.0899 52.8454 43.1288 55.3515C43.1676 57.9245 40.873 60.1738 38.218 60.163L38.2158 60.1651Z" fill="#5C5C5C"/>
<path d="M21.9269 58.5549C20.1979 58.5419 18.7495 57.0482 18.7732 55.3084C18.797 53.6441 20.2994 52.2 21.9809 52.2259C23.7164 52.2518 25.2015 53.7736 25.154 55.4746C25.1065 57.1475 23.6171 58.5679 21.9269 58.5549Z" fill="#5C5C5C"/>
<path d="M7.96949 22.0443C7.99539 23.7172 6.44768 25.2973 4.76398 25.3167C3.22706 25.3362 1.58438 23.7215 1.52825 22.135C1.47213 20.5355 3.11482 18.895 4.78341 18.8906C6.41746 18.8863 7.94359 20.3973 7.96949 22.0443Z" fill="#5C5C5C"/>
<path d="M55.5081 35.1882C57.2307 35.2465 58.6748 36.6949 58.6597 38.3483C58.6446 40.0687 57.0256 41.5452 55.2448 41.4632C53.574 41.3855 52.1278 39.8227 52.2141 38.1908C52.3026 36.5071 53.8136 35.1321 55.5081 35.1882Z" fill="#5C5C5C"/>
<path d="M38.2697 8.15203C36.4306 8.14124 35.1009 6.78997 35.1139 4.94438C35.1268 3.22399 36.5515 1.86408 38.3215 1.88351C40.057 1.90078 41.4536 3.32544 41.4256 5.04583C41.3954 6.82019 40.0333 8.16283 38.2697 8.15203Z" fill="#5C5C5C"/>
<path d="M4.76626 2.68609C6.08948 2.67746 7.09106 3.64666 7.12344 4.9634C7.15366 6.25423 6.05278 7.4285 4.8008 7.44145C3.61357 7.4544 2.38749 6.20674 2.38965 4.99146C2.39181 3.78913 3.52075 2.69473 4.76626 2.68609Z" fill="#5C5C5C"/>
<path d="M7.12323 55.4509C7.09949 56.7158 5.9101 57.8534 4.67539 57.7951C3.5486 57.7411 2.37649 56.4848 2.38728 55.3429C2.39807 54.1385 3.52702 53.0613 4.77684 53.0635C6.1238 53.0635 7.15129 54.1104 7.12539 55.453L7.12323 55.4509Z" fill="#5C5C5C"/>
<path d="M57.7983 4.98742C57.8091 6.21997 56.6219 7.44173 55.4174 7.43741C54.2345 7.43309 53.1163 6.30631 53.0731 5.08024C53.0278 3.78293 54.1179 2.67989 55.4368 2.68853C56.6996 2.69716 57.7875 3.75918 57.7983 4.98742Z" fill="#5C5C5C"/>
<path d="M55.4865 53.0634C56.7579 53.0979 57.8221 54.1729 57.7983 55.4011C57.7746 56.625 56.5701 57.8123 55.3613 57.7971C54.1633 57.782 53.0192 56.5301 53.071 55.2846C53.1228 54.0239 54.2043 53.0288 55.4865 53.0634Z" fill="#5C5C5C"/>
</g>
<defs>
<clipPath id="clip0_358_782">
<rect width="298" height="60" fill="white" transform="translate(0 0.165039)"/>
</clipPath>
</defs>
</svg>
