<svg width="80" height="81" viewBox="0 0 80 81" fill="none" xmlns="http://www.w3.org/2000/svg">
<path d="M28.833 23.4648H6.69971V29.0315H28.833V23.4648Z" fill="#5C5C5C"/>
<path d="M37.2332 51.2314H6.6665V56.7981H37.2332V51.2314Z" fill="#5C5C5C"/>
<path d="M15.0332 37.3652H6.6665V42.8986H20.5998H39.9998L34.4332 37.3652H15.0332Z" fill="#5C5C5C"/>
<path d="M39.9996 30.3983C40.0481 30.0627 40.2167 29.756 40.4742 29.5353C40.7317 29.3146 41.0605 29.1949 41.3996 29.1983C41.735 29.1958 42.0596 29.3167 42.3116 29.538C42.5636 29.7593 42.7254 30.0655 42.7663 30.3983V60.9983C42.7786 62.054 43.0306 63.0931 43.5033 64.037C43.976 64.981 44.6571 65.8052 45.4951 66.4473C46.3331 67.0895 47.3061 67.5328 48.3405 67.7437C49.3749 67.9547 50.4438 67.9277 51.4663 67.665C52.985 67.2261 54.317 66.2996 55.2567 65.0285C56.1965 63.7573 56.6919 62.2123 56.6663 60.6317V19.3317C56.6288 19.0717 56.669 18.8066 56.7816 18.5694C56.8943 18.3322 57.0745 18.1335 57.2996 17.9983C57.5224 17.8521 57.7831 17.7742 58.0496 17.7742C58.3162 17.7742 58.5768 17.8521 58.7996 17.9983C59.0248 18.1335 59.205 18.3322 59.3176 18.5694C59.4303 18.8066 59.4704 19.0717 59.433 19.3317V49.865C59.4342 50.9221 59.6783 51.9649 60.1464 52.9127C60.6145 53.8606 61.2942 54.6882 62.133 55.3317C62.9617 56.0019 63.939 56.4636 64.9829 56.6782C66.0269 56.8928 67.1071 56.854 68.133 56.565C69.6572 56.1246 70.9933 55.1931 71.9337 53.9152C72.874 52.6373 73.3659 51.0846 73.333 49.4983V40.165H67.7663V49.8983C67.8038 50.1582 67.7636 50.4234 67.651 50.6606C67.5383 50.8978 67.3581 51.0965 67.133 51.2317C66.9102 51.3779 66.6495 51.4558 66.383 51.4558C66.1165 51.4558 65.8558 51.3779 65.633 51.2317C65.4078 51.0965 65.2276 50.8978 65.115 50.6606C65.0023 50.4234 64.9622 50.1582 64.9996 49.8983V19.3317C64.9874 18.276 64.7354 17.2369 64.2627 16.293C63.7899 15.349 63.1088 14.5248 62.2708 13.8827C61.4329 13.2405 60.4599 12.7972 59.4254 12.5863C58.391 12.3753 57.3221 12.4023 56.2996 12.665C54.7698 13.1068 53.4295 14.0433 52.4886 15.328C51.5477 16.6127 51.0592 18.1731 51.0996 19.765V60.9983C51.1371 61.2582 51.097 61.5234 50.9843 61.7606C50.8716 61.9978 50.6914 62.1965 50.4663 62.3317C50.2435 62.4779 49.9828 62.5558 49.7163 62.5558C49.4498 62.5558 49.1891 62.4779 48.9663 62.3317C48.7412 62.1965 48.561 61.9978 48.4483 61.7606C48.3356 61.5234 48.2955 61.2582 48.333 60.9983V30.4317C48.3405 28.7008 47.6971 27.0302 46.5306 25.7515C45.364 24.4727 43.7594 23.6791 42.0351 23.5281C40.3108 23.377 38.5927 23.8796 37.2216 24.9361C35.8505 25.9926 34.9265 27.5258 34.633 29.2317C34.5282 29.7362 34.4723 30.2497 34.4663 30.765V37.4317L39.9996 42.8983V30.3983Z" fill="#5C5C5C"/>
</svg>
