<svg width="104" height="80" viewBox="0 0 104 80" fill="none" xmlns="http://www.w3.org/2000/svg">
<g clip-path="url(#clip0_359_857)">
<path d="M19.3091 49.0288C19.3091 46.1034 19.3155 43.1781 19.3016 40.2538C19.2994 39.8387 19.4106 39.5855 19.7941 39.3663C24.8874 36.4547 29.97 33.523 35.0547 30.5987C35.6487 30.2571 35.6519 30.2592 35.6519 30.9765C35.6519 36.6314 35.6519 42.2863 35.6519 47.9423C35.6519 48.0838 35.6519 48.2264 35.6519 48.3679C35.6573 49.0309 35.6776 49.0447 36.2417 48.7212C38.6158 47.3581 40.9888 45.9927 43.3629 44.6285C46.0607 43.078 48.7639 41.5382 51.4499 39.9686C51.8591 39.7291 52.1572 39.7334 52.5643 39.9686C57.5497 42.8546 62.5446 45.7214 67.5385 48.5935C68.0806 48.905 68.352 48.7397 68.3527 48.0976C68.3527 42.3895 68.3527 36.6814 68.3527 30.9722C68.3527 30.2624 68.3548 30.2613 68.9884 30.6253C74.0432 33.5326 79.0948 36.4462 84.1581 39.3386C84.5738 39.5759 84.7073 39.8387 84.7062 40.3027C84.6913 46.1524 84.6913 52.0031 84.7062 57.8528C84.7073 58.3008 84.5652 58.5498 84.1742 58.7732C79.0809 61.6858 73.9951 64.6091 68.9189 67.5515C68.4852 67.8026 68.1764 67.776 67.7597 67.5355C62.6974 64.6059 57.6212 61.6986 52.56 58.7679C52.1508 58.5306 51.8559 58.5338 51.4478 58.7701C46.3695 61.7082 41.2784 64.6229 36.1979 67.5578C35.8186 67.7771 35.5312 67.8133 35.1316 67.5813C30.0234 64.624 24.9066 61.6827 19.7834 58.7509C19.4255 58.5466 19.2962 58.3157 19.2984 57.9102C19.3144 54.9497 19.3069 51.9893 19.3069 49.0288H19.3091Z" fill="#5C5C5C"/>
<path d="M103.976 40.1727C103.976 49.4107 103.953 58.6486 103.999 67.8865C104.006 69.4168 103.471 70.3884 102.126 71.1439C97.041 74.0001 91.9969 76.9297 86.9496 79.8519C86.5073 80.1083 86.3288 80.0264 86.1023 79.6124C85.5232 78.5547 84.9163 77.5097 84.287 76.4806C84.0552 76.1018 84.1107 75.9294 84.4954 75.7091C89.1677 73.0264 93.825 70.3171 98.5016 67.6418C98.9995 67.3566 99.1811 67.0501 99.18 66.4765C99.164 48.9222 99.164 31.3679 99.18 13.8136C99.18 13.2411 99.0059 12.9293 98.508 12.6452C93.6882 9.89751 88.8867 7.119 84.0691 4.36709C83.6257 4.11383 83.4964 3.93079 83.802 3.45086C84.4494 2.43352 85.036 1.37682 85.6258 0.324369C85.8064 0.0019302 85.9495 -0.104485 86.3203 0.10941C91.7554 3.24973 97.197 6.37835 102.642 9.50271C103.61 10.0582 103.985 10.8904 103.983 11.9779C103.969 17.0667 103.976 22.1555 103.977 27.2443C103.977 31.5531 103.977 35.8618 103.977 40.1706L103.976 40.1727Z" fill="#5C5C5C"/>
<path d="M0.0139162 40.2125C0.0139162 30.9054 0.0267375 21.5994 2.64247e-05 12.2923C-0.00424734 10.9355 0.509673 10.0469 1.69885 9.36904C6.82523 6.44367 11.9228 3.46936 17.0192 0.492917C17.4723 0.227942 17.6667 0.296048 17.906 0.739801C18.4702 1.7848 19.0674 2.8149 19.6935 3.82479C19.9478 4.23449 19.8645 4.40688 19.466 4.63567C14.7659 7.33863 10.0786 10.0639 5.37749 12.7658C4.97362 12.9978 4.81015 13.2458 4.81015 13.7225C4.82297 31.3609 4.82297 48.9992 4.81015 66.6376C4.81015 67.1058 4.95439 67.3644 5.36467 67.5996C9.9173 70.2025 14.4582 72.8257 19.0023 75.4446C19.4026 75.6751 19.4881 75.9894 19.2587 76.3874C18.655 77.4313 18.0385 78.4689 17.4498 79.5224C17.2725 79.8385 17.1197 79.9012 16.7895 79.7097C11.6183 76.7205 6.43846 73.7451 1.26399 70.7623C0.459456 70.2983 0.0577223 69.5832 0.0171215 68.6638C0.00750552 68.4339 0.0117793 68.203 0.0117793 67.9721C0.0117793 58.7182 0.0117793 49.4653 0.0117793 40.2114L0.0139162 40.2125Z" fill="#5C5C5C"/>
</g>
<defs>
<clipPath id="clip0_359_857">
<rect width="104" height="80" fill="white"/>
</clipPath>
</defs>
</svg>
