<svg width="176" height="42" viewBox="0 0 176 42" fill="none" xmlns="http://www.w3.org/2000/svg">
<g clip-path="url(#clip0_31_209)">
<path d="M83.9244 41.9203L82.2901 37.4751H82.7684L84.1436 41.3223L85.5187 37.4751H85.9971L84.3628 41.9203H83.9044H83.9244Z" fill="white"/>
<path d="M86.3957 38.1927C86.2761 38.0731 86.2761 37.8737 86.3957 37.7541C86.5152 37.6345 86.7145 37.6345 86.8341 37.7541C86.9537 37.8737 86.9537 38.0731 86.8341 38.1927C86.7145 38.3123 86.5152 38.3123 86.3957 38.1927ZM86.3957 41.9202V38.7508H86.8142V41.9202H86.3957Z" fill="white"/>
<path d="M88.6876 40.1263C89.2257 40.2658 89.8834 40.4053 89.8834 41.0831C89.8834 41.3621 89.7837 41.5814 89.5645 41.7409C89.3453 41.9203 89.0662 42 88.7474 42C88.1295 42 87.6911 41.701 87.5316 41.2625L87.8904 41.0432C88.01 41.3821 88.3288 41.5814 88.7673 41.5814C89.2058 41.5814 89.5047 41.4219 89.5047 41.0831C89.5047 40.804 89.2058 40.6445 88.847 40.5449C88.3089 40.4053 87.6512 40.2658 87.6512 39.5881C87.6512 39.3289 87.7509 39.1096 87.9502 38.9502C88.1694 38.7708 88.4285 38.691 88.7274 38.691C89.2456 38.691 89.6442 38.9302 89.8435 39.3289L89.5047 39.5282C89.3851 39.2292 89.126 39.0897 88.7474 39.0897C88.3886 39.0897 88.0897 39.2691 88.0897 39.5881C88.0897 39.8671 88.3886 40.0266 88.7474 40.1263H88.6876Z" fill="white"/>
<path d="M93.2116 38.7508H93.6302V41.9203H93.2116V41.3023C92.9127 41.7608 92.4942 42 91.9361 42C91.4778 42 91.0991 41.8405 90.7802 41.5216C90.4613 41.2027 90.3019 40.804 90.3019 40.3455C90.3019 39.8871 90.4613 39.4884 90.7802 39.1694C91.0991 38.8505 91.4977 38.691 91.9361 38.691C92.4942 38.691 92.9326 38.9302 93.2116 39.3887V38.7708V38.7508ZM91.9561 41.6013C92.3148 41.6013 92.5938 41.4817 92.8529 41.2425C93.0921 41.0033 93.2116 40.7043 93.2116 40.3455C93.2116 39.9867 93.0921 39.7077 92.8529 39.4485C92.6137 39.2093 92.3148 39.0897 91.9561 39.0897C91.5973 39.0897 91.3183 39.2093 91.0592 39.4485C90.8201 39.6877 90.7005 39.9867 90.7005 40.3455C90.7005 40.7043 90.8201 40.9834 91.0592 41.2425C91.2984 41.4817 91.5973 41.6013 91.9561 41.6013Z" fill="white"/>
<path d="M96.1812 37.4751H96.6196V41.9203H96.1812V37.4751Z" fill="white"/>
<path d="M100.307 39.9667V41.9202H99.8881V39.9667C99.8881 39.4086 99.5692 39.0697 99.0311 39.0697C98.4133 39.0697 97.9948 39.4485 97.9948 40.2458V41.9003H97.5763V38.7309H97.9948V39.2292C98.2339 38.8505 98.5927 38.6511 99.0511 38.6511C99.8283 38.6511 100.287 39.1495 100.287 39.9468L100.307 39.9667Z" fill="white"/>
<path d="M102.698 37.814C102.08 37.7542 101.781 38.0133 101.781 38.6313V38.7509H102.698V39.1495H101.781V41.9203H101.363V39.1495H100.825V38.7509H101.363V38.6313C101.363 37.7941 101.841 37.3555 102.698 37.4153V37.814Z" fill="white"/>
<path d="M103.555 39.2691C103.755 38.8904 104.073 38.691 104.552 38.691V39.0897C103.974 39.0897 103.555 39.4086 103.555 40.1462V41.9203H103.137V38.7508H103.555V39.2691Z" fill="white"/>
<path d="M107.681 38.7508H108.099V41.9203H107.681V41.3023C107.382 41.7608 106.963 42 106.405 42C105.947 42 105.568 41.8405 105.249 41.5216C104.93 41.2027 104.771 40.804 104.771 40.3455C104.771 39.8871 104.93 39.4884 105.249 39.1694C105.568 38.8505 105.967 38.691 106.405 38.691C106.963 38.691 107.402 38.9302 107.681 39.3887V38.7708V38.7508ZM106.425 41.6013C106.784 41.6013 107.063 41.4817 107.322 41.2425C107.561 41.0033 107.681 40.7043 107.681 40.3455C107.681 39.9867 107.561 39.7077 107.322 39.4485C107.083 39.2093 106.784 39.0897 106.425 39.0897C106.066 39.0897 105.787 39.2093 105.528 39.4485C105.289 39.6877 105.17 39.9867 105.17 40.3455C105.17 40.7043 105.289 40.9834 105.528 41.2425C105.767 41.4817 106.066 41.6013 106.425 41.6013Z" fill="white"/>
<path d="M109.973 40.1263C110.511 40.2658 111.168 40.4053 111.168 41.0831C111.168 41.3621 111.069 41.5814 110.85 41.7409C110.63 41.9203 110.351 42 110.032 42C109.415 42 108.976 41.701 108.817 41.2625L109.175 41.0432C109.295 41.3821 109.614 41.5814 110.052 41.5814C110.491 41.5814 110.79 41.4219 110.79 41.0831C110.79 40.804 110.491 40.6445 110.132 40.5449C109.594 40.4053 108.936 40.2658 108.936 39.5881C108.936 39.3289 109.036 39.1096 109.235 38.9502C109.454 38.7708 109.714 38.691 110.012 38.691C110.531 38.691 110.929 38.9302 111.129 39.3289L110.79 39.5282C110.67 39.2292 110.411 39.0897 110.032 39.0897C109.674 39.0897 109.375 39.2691 109.375 39.5881C109.375 39.8671 109.674 40.0266 110.032 40.1263H109.973Z" fill="white"/>
<path d="M113.42 39.1495H112.504V41.0631C112.504 41.6014 112.803 41.5615 113.42 41.5416V41.9004C112.524 42.0399 112.085 41.8007 112.085 41.0631V39.1495H111.427V38.7509H112.085V37.9934L112.504 37.8738V38.7708H113.42V39.1695V39.1495Z" fill="white"/>
<path d="M114.537 39.2691C114.736 38.8904 115.055 38.691 115.533 38.691V39.0897C114.955 39.0897 114.537 39.4086 114.537 40.1462V41.9203H114.118V38.7508H114.537V39.2691Z" fill="white"/>
<path d="M118.343 38.7509H118.762V41.9203H118.343V41.422C118.104 41.8007 117.745 42 117.287 42C116.51 42 116.051 41.5017 116.051 40.7043V38.7509H116.47V40.7043C116.47 41.2625 116.789 41.6014 117.327 41.6014C117.945 41.6014 118.363 41.2226 118.363 40.4253V38.7708L118.343 38.7509Z" fill="white"/>
<path d="M119.937 41.5215C119.619 41.2026 119.459 40.8039 119.459 40.3255C119.459 39.8471 119.619 39.4684 119.937 39.1494C120.256 38.8305 120.655 38.671 121.133 38.671C121.771 38.671 122.289 38.99 122.528 39.5082L122.19 39.7076C122.01 39.3288 121.612 39.0896 121.133 39.0896C120.794 39.0896 120.496 39.2092 120.236 39.4484C119.997 39.6876 119.878 39.9866 119.878 40.3454C119.878 40.7042 119.997 40.9833 120.236 41.2425C120.476 41.4817 120.775 41.6013 121.133 41.6013C121.612 41.6013 121.99 41.3621 122.209 40.9833L122.548 41.1826C122.289 41.681 121.751 41.9999 121.133 41.9999C120.655 41.9999 120.256 41.8405 119.937 41.5215Z" fill="white"/>
<path d="M124.84 39.1495H123.923V41.0631C123.923 41.6014 124.222 41.5615 124.84 41.5416V41.9004C123.943 42.0399 123.505 41.8007 123.505 41.0631V39.1495H122.847V38.7509H123.505V37.9934L123.923 37.8738V38.7708H124.84V39.1695V39.1495Z" fill="white"/>
<path d="M127.77 38.7509H128.188V41.9203H127.77V41.422C127.531 41.8007 127.172 42 126.714 42C125.936 42 125.478 41.5017 125.478 40.7043V38.7509H125.897V40.7043C125.897 41.2625 126.215 41.6014 126.753 41.6014C127.371 41.6014 127.79 41.2226 127.79 40.4253V38.7708L127.77 38.7509Z" fill="white"/>
<path d="M129.504 39.2691C129.703 38.8904 130.022 38.691 130.5 38.691V39.0897C129.922 39.0897 129.504 39.4086 129.504 40.1462V41.9203H129.085V38.7508H129.504V39.2691Z" fill="white"/>
<path d="M133.669 39.1694C133.968 39.5082 134.108 39.887 134.108 40.3454C134.108 40.3853 134.108 40.465 134.108 40.5448H131.317C131.397 41.1826 131.895 41.6013 132.573 41.6013C133.051 41.6013 133.41 41.382 133.589 41.063L133.948 41.2823C133.669 41.7408 133.171 42.0199 132.553 42.0199C132.055 42.0199 131.636 41.8604 131.337 41.5415C131.018 41.2225 130.859 40.8238 130.859 40.3454C130.859 39.867 131.018 39.4684 131.317 39.1494C131.636 38.8305 132.015 38.671 132.513 38.671C133.011 38.671 133.37 38.8305 133.649 39.1694H133.669ZM131.317 40.1262H133.689C133.649 39.7873 133.51 39.5282 133.31 39.3488C133.091 39.1694 132.832 39.0697 132.553 39.0697C131.895 39.0697 131.417 39.5082 131.337 40.1262H131.317Z" fill="white"/>
<path d="M137.954 37.814C137.336 37.7542 137.037 38.0133 137.037 38.6313V38.7509H137.954V39.1495H137.037V41.9203H136.619V39.1495H136.081V38.7509H136.619V38.6313C136.619 37.7941 137.097 37.3555 137.954 37.4153V37.814Z" fill="white"/>
<path d="M139.867 41.9999C139.409 41.9999 139.01 41.8405 138.672 41.5215C138.353 41.2026 138.193 40.8039 138.193 40.3255C138.193 39.8471 138.353 39.4684 138.672 39.1494C138.99 38.8305 139.389 38.671 139.867 38.671C140.346 38.671 140.724 38.8305 141.043 39.1494C141.362 39.4684 141.541 39.867 141.541 40.3255C141.541 40.784 141.382 41.1826 141.043 41.5215C140.724 41.8405 140.326 41.9999 139.867 41.9999ZM139.867 41.6013C140.226 41.6013 140.505 41.4817 140.764 41.2425C141.003 41.0032 141.123 40.7042 141.123 40.3454C141.123 39.9866 141.003 39.7076 140.764 39.4484C140.525 39.2092 140.226 39.0896 139.867 39.0896C139.509 39.0896 139.23 39.2092 138.97 39.4484C138.731 39.6876 138.612 39.9866 138.612 40.3454C138.612 40.7042 138.731 40.9833 138.97 41.2425C139.21 41.4817 139.509 41.6013 139.867 41.6013Z" fill="white"/>
<path d="M142.657 39.2691C142.857 38.8904 143.176 38.691 143.654 38.691V39.0897C143.076 39.0897 142.657 39.4086 142.657 40.1462V41.9203H142.239V38.7508H142.657V39.2691Z" fill="white"/>
<path d="M148.676 37.4751V37.8937H147.321V41.9203H146.883V37.8937H145.527V37.4751H148.696H148.676Z" fill="white"/>
<path d="M151.965 39.9667V41.9202H151.546V39.9667C151.546 39.4086 151.227 39.0697 150.689 39.0697C150.071 39.0697 149.653 39.4484 149.653 40.2458V41.9003H149.234V37.4551H149.653V39.2292C149.892 38.8504 150.251 38.6511 150.709 38.6511C151.486 38.6511 151.945 39.1494 151.945 39.9468L151.965 39.9667Z" fill="white"/>
<path d="M155.393 39.1694C155.692 39.5082 155.831 39.887 155.831 40.3454C155.831 40.3853 155.831 40.465 155.831 40.5448H153.041C153.121 41.1826 153.619 41.6013 154.296 41.6013C154.775 41.6013 155.134 41.382 155.313 41.063L155.672 41.2823C155.393 41.7408 154.894 42.0199 154.277 42.0199C153.778 42.0199 153.36 41.8604 153.061 41.5415C152.742 41.2225 152.582 40.8238 152.582 40.3454C152.582 39.867 152.742 39.4684 153.041 39.1494C153.36 38.8305 153.738 38.671 154.237 38.671C154.735 38.671 155.094 38.8305 155.373 39.1694H155.393ZM153.041 40.1262H155.413C155.373 39.7873 155.233 39.5282 155.034 39.3488C154.815 39.1694 154.556 39.0697 154.277 39.0697C153.619 39.0697 153.141 39.5082 153.061 40.1262H153.041Z" fill="white"/>
<path d="M159.737 37.4751C160.136 37.4751 160.475 37.6146 160.734 37.8738C160.993 38.1329 161.132 38.4718 161.132 38.8704C161.132 39.2691 160.993 39.608 160.734 39.8671C160.475 40.1263 160.136 40.2658 159.737 40.2658H158.601V41.9203H158.163V37.4751H159.757H159.737ZM159.737 39.8472C160.016 39.8472 160.236 39.7675 160.415 39.5681C160.594 39.3887 160.694 39.1495 160.694 38.8704C160.694 38.5914 160.614 38.3522 160.415 38.1728C160.236 37.9934 160.016 37.8937 159.737 37.8937H158.601V39.8472H159.737Z" fill="white"/>
<path d="M161.83 41.9202V37.2957H162.248V41.9202H161.83Z" fill="white"/>
<path d="M165.856 38.7508H166.274V41.9203H165.856V41.3023C165.557 41.7608 165.138 42 164.58 42C164.122 42 163.743 41.8405 163.424 41.5216C163.105 41.2027 162.946 40.804 162.946 40.3455C162.946 39.8871 163.105 39.4884 163.424 39.1694C163.743 38.8505 164.142 38.691 164.58 38.691C165.138 38.691 165.577 38.9302 165.856 39.3887V38.7708V38.7508ZM164.6 41.6013C164.959 41.6013 165.238 41.4817 165.497 41.2425C165.736 41.0033 165.856 40.7043 165.856 40.3455C165.856 39.9867 165.736 39.7077 165.497 39.4485C165.258 39.2093 164.959 39.0897 164.6 39.0897C164.241 39.0897 163.962 39.2093 163.703 39.4485C163.464 39.6877 163.345 39.9867 163.345 40.3455C163.345 40.7043 163.464 40.9834 163.703 41.2425C163.942 41.4817 164.241 41.6013 164.6 41.6013Z" fill="white"/>
<path d="M169.901 39.9667V41.9202H169.483V39.9667C169.483 39.4086 169.164 39.0697 168.626 39.0697C168.008 39.0697 167.59 39.4485 167.59 40.2458V41.9003H167.171V38.7309H167.59V39.2292C167.829 38.8505 168.188 38.6511 168.646 38.6511C169.423 38.6511 169.882 39.1495 169.882 39.9468L169.901 39.9667Z" fill="white"/>
<path d="M173.309 39.1694C173.608 39.5082 173.748 39.887 173.748 40.3454C173.748 40.3853 173.748 40.465 173.748 40.5448H170.958C171.037 41.1826 171.536 41.6013 172.213 41.6013C172.692 41.6013 173.05 41.382 173.23 41.063L173.588 41.2823C173.309 41.7408 172.811 42.0199 172.193 42.0199C171.695 42.0199 171.277 41.8604 170.978 41.5415C170.659 41.2225 170.499 40.8238 170.499 40.3454C170.499 39.867 170.659 39.4684 170.958 39.1494C171.277 38.8305 171.655 38.671 172.154 38.671C172.652 38.671 173.011 38.8305 173.29 39.1694H173.309ZM170.958 40.1262H173.329C173.29 39.7873 173.15 39.5282 172.951 39.3488C172.732 39.1694 172.472 39.0697 172.193 39.0697C171.536 39.0697 171.057 39.5082 170.978 40.1262H170.958Z" fill="white"/>
<path d="M176 39.1495H175.083V41.0631C175.083 41.6014 175.382 41.5615 176 41.5416V41.9004C175.103 42.0399 174.665 41.8007 174.665 41.0631V39.1495H174.007V38.7509H174.665V37.9934L175.083 37.8738V38.7708H176V39.1695V39.1495Z" fill="white"/>
<path d="M82.6489 32.5116L73.8399 6.25916H79.4601L85.8775 26.4319L92.255 6.25916H97.9151L89.0662 32.5116H82.6489Z" fill="white"/>
<path d="M114.477 32.5116L112.902 27.7874H102.439L100.865 32.5116H95.2843L104.472 6.25916H110.889L120.117 32.5116H114.497H114.477ZM104.093 22.9435H111.288L107.681 12.2193L104.073 22.9435H104.093Z" fill="white"/>
<path d="M122.648 6.25916H127.83V32.5116H122.648V6.25916Z" fill="white"/>
<path d="M147.879 6.25916H153.061V32.5116H149.115L137.874 16.4651V32.5116H132.693V6.25916H136.639L147.879 22.2658V6.25916Z" fill="white"/>
<path d="M156.17 26.5515L160.594 23.9601C161.611 26.6312 163.624 27.9668 166.633 27.9668C169.642 27.9668 170.838 26.8106 170.838 25.196C170.838 24.2591 170.42 23.5415 169.603 23.0631C168.785 22.5448 167.311 21.9668 165.178 21.3688C162.806 20.6511 161.391 20.093 159.737 18.9369C158.123 17.7408 157.266 15.9468 157.266 13.5349C157.266 11.1229 158.083 9.26908 159.777 7.87373C161.471 6.45845 163.524 5.74084 165.896 5.74084C170.141 5.74084 173.469 7.9136 175.263 11.6212L170.918 14.1329C169.862 11.8804 168.188 10.7641 165.896 10.7641C163.763 10.7641 162.448 11.8604 162.448 13.3953C162.448 14.2126 162.787 14.8903 163.464 15.4286C164.182 15.907 165.497 16.485 167.43 17.083L169.224 17.681C169.642 17.8006 170.2 18.0199 170.918 18.3189C171.635 18.5781 172.193 18.8372 172.572 19.1163C173.369 19.5947 174.565 20.5315 175.043 21.4485C175.601 22.3455 176.02 23.6611 176.02 25.1561C176.02 27.588 175.123 29.5016 173.349 30.9369C171.596 32.3721 169.304 33.0697 166.493 33.0697C161.292 33.0697 157.645 30.598 156.19 26.5913L156.17 26.5515Z" fill="white"/>
<path d="M22.7 27.9468L17.877 17.5615H17.8571L13.7516 8.75083L9.66595 0H0L4.06568 8.75083L13.0142 27.9269L13.0341 27.9468L14.8876 31.9336L17.8571 38.3123H17.877L19.5711 41.9801H29.2569L24.5535 31.9336L22.7 27.9468Z" fill="white"/>
<path d="M11.36 31.495L6.47718 41.98H16.1431L16.2029 41.8604L11.5792 31.9335L11.36 31.495Z" fill="white"/>
<path d="M66.6054 36.1595L64.6323 31.9336L54.8468 10.9236L50.0039 21.289V21.309L54.9664 31.9336L59.6499 41.9801H69.3158L66.6054 36.1595Z" fill="white"/>
<path d="M50.0039 0.538206L49.7647 0.0199336L43.6861 0C43.6861 0 42.291 3.00997 42.1714 3.2691V3.28904L42.1316 3.34884L42.0917 3.40864C42.0917 3.40864 42.0718 3.4485 42.0718 3.46844L42.0319 3.56811C42.0319 3.56811 41.9921 3.64784 41.9721 3.70764C41.9721 3.74751 41.9323 3.76744 41.9323 3.80731C41.9323 3.80731 41.9124 3.84718 41.8924 3.86711L39.6404 8.71096H44.1644L45.1808 10.8638L46.0179 9.0897V9.06977L46.1773 8.7309L46.2172 8.65116L50.0039 0.538206Z" fill="white"/>
<path d="M53.8304 8.75083L50.0039 0.538208L46.2172 8.6711L46.1773 8.75083L46.0179 9.0897L45.1609 10.9037V10.9236L46.5959 13.9934L50.0039 21.289L54.8468 10.9236L53.8304 8.75083Z" fill="white"/>
<path d="M53.8304 8.75083L50.0039 0.538208L46.2172 8.6711L46.1773 8.75083L46.0179 9.10964L45.1808 10.9236L38.5243 25.2159L36.4915 29.6013L30.7118 41.9801H40.3778L47.1539 27.4684L50.0437 21.289L54.8867 10.9236L53.8702 8.75083H53.8304Z" fill="white"/>
<path d="M41.8924 3.86711C41.8924 3.86711 41.9124 3.82724 41.9323 3.80731C41.9323 3.80731 41.9721 3.74751 41.9721 3.70764C41.9921 3.66777 42.012 3.62791 42.0319 3.56811L42.0718 3.46844L42.0917 3.40864L42.1316 3.34884L42.1714 3.28904V3.2691L43.6861 0H33.5418C33.3226 0 33.1034 0 32.9041 0C32.6849 0.0199336 32.4856 0.0398671 32.2663 0.0598007C32.2065 0.0598007 32.1667 0.0598007 32.1268 0.0598007C31.7282 0.0996678 31.3296 0.159468 30.951 0.239203C30.7118 0.299003 30.4926 0.33887 30.2734 0.398671C30.0741 0.458472 29.8548 0.518272 29.6555 0.598007C29.4762 0.637874 29.2968 0.697674 29.1174 0.757475C29.0975 0.757475 29.0776 0.757475 29.0576 0.777409C28.8583 0.857143 28.659 0.936877 28.4597 1.03654C28.2804 1.09635 28.1209 1.17608 27.9615 1.23588C27.8419 1.29568 27.7223 1.33555 27.6227 1.39535C27.523 1.45515 27.4234 1.49502 27.3237 1.55482C26.965 1.75415 26.6063 1.97342 26.2675 2.23256C26.0881 2.35216 25.9087 2.47176 25.7493 2.59136C25.5699 2.71096 25.4304 2.8505 25.251 2.99003C25.0916 3.12957 24.9322 3.2691 24.7727 3.3887C24.6731 3.48837 24.5535 3.58804 24.4539 3.70764C24.3941 3.74751 24.3343 3.80731 24.2944 3.86711C24.2147 3.94684 24.135 4.00664 24.0553 4.08638C23.9755 4.18605 23.8759 4.28571 23.7762 4.38538C23.5371 4.66445 23.3179 4.92359 23.0986 5.22259C22.72 5.72093 22.3812 6.25914 22.0822 6.81728C21.9826 6.99668 21.8829 7.19601 21.8032 7.37542C21.7235 7.55482 21.6238 7.75415 21.5441 7.95349C21.5441 7.95349 21.5441 7.97342 21.5441 7.99336C21.4843 8.11296 21.4445 8.23256 21.4046 8.35216C21.3647 8.49169 21.3249 8.6113 21.2651 8.7309C21.0658 9.2691 20.9064 9.84718 20.7868 10.4252C20.7071 10.9037 20.6273 11.3621 20.5875 11.8405C20.5476 12.2591 20.5277 12.6578 20.5277 13.0565C20.5277 13.515 20.5476 13.9535 20.5875 14.392C20.6074 14.6113 20.6273 14.8106 20.6672 15.0299C20.6871 15.2292 20.727 15.4086 20.7469 15.588C20.7868 15.7674 20.8266 15.9668 20.8665 16.1462C20.9064 16.3455 20.9661 16.5249 21.0259 16.7243C21.0857 16.9236 21.1455 17.103 21.2053 17.3023C21.2452 17.4219 21.285 17.5615 21.3448 17.6811C21.4046 17.8206 21.4445 17.9601 21.5042 18.0997V18.1395L21.5441 18.2193L24.414 24.3588L27.5828 31.1761C27.6626 31.3555 27.7223 31.495 27.7821 31.6146L27.9216 31.8937L28.4 32.8904L28.8185 31.9734L31.6087 25.9934C31.6087 25.9934 31.6884 25.8339 31.7482 25.6944L32.1069 24.9169L32.4058 24.2791L32.5653 23.9601L32.8244 23.4219L32.9838 23.0831L33.1432 22.7442V22.7043L33.203 22.6047V22.5648C33.3226 22.3854 32.6251 21.2691 32.5454 21.0698C32.1268 20.1528 31.6884 19.2159 31.2698 18.299C30.2534 16.1262 28.7388 13.814 29.8748 11.3422C29.9345 11.2027 30.0143 11.0631 30.1139 10.9435C30.2734 10.6844 30.4727 10.4452 30.672 10.2259C30.7716 10.1262 30.8713 10.0266 30.9908 9.92691L31.0307 9.88704C31.0307 9.88704 31.1702 9.76744 31.2499 9.70764C31.2499 9.70764 31.2898 9.66777 31.3097 9.66777C31.3695 9.60797 31.4293 9.56811 31.4891 9.52824C31.6087 9.44851 31.7282 9.36877 31.8478 9.30897C32.7446 8.83057 33.8209 8.7309 34.8572 8.7309H35.0166C35.196 8.7309 35.3754 8.7309 35.5348 8.7309H39.7201L41.9721 3.88704L41.8924 3.86711Z" fill="white"/>
</g>
<defs>
<clipPath id="clip0_31_209">
<rect width="176" height="42" fill="white"/>
</clipPath>
</defs>
</svg>
