<svg width="24" height="16" viewBox="0 0 24 16" fill="none" xmlns="http://www.w3.org/2000/svg">
<g clip-path="url(#clip0_63_270)">
<path d="M0 0H24V16H0V0Z" fill="white"/>
<path d="M0 0H24V1.23041H0V0ZM0 2.46082H24V3.69123H0V2.46082ZM0 4.92164H24V6.15205H0V4.92164ZM0 7.38246H24V8.61287H0V7.38246ZM0 9.84795H24V11.0784H0V9.84795ZM0 12.3088H24V13.5392H0V12.3088ZM0 14.7696H24V16H0V14.7696Z" fill="#D80027"/>
<path d="M0 0H12V8.61287H0V0Z" fill="#2E52B2"/>
<path d="M2.23626 6.49827L2.04913 5.89944L1.84328 6.49827H1.22574L1.72632 6.8585L1.53919 7.45733L2.04913 7.08774L2.54504 7.45733L2.35322 6.8585L2.86317 6.49827H2.23626ZM4.87018 6.49827L4.67837 5.89944L4.48188 6.49827H3.86433L4.36492 6.8585L4.17779 7.45733L4.67837 7.08774L5.18363 7.45733L4.9965 6.8585L5.49708 6.49827H4.87018ZM7.51346 6.49827L7.31229 5.89944L7.12515 6.49827H6.49358L7.00819 6.8585L6.8117 7.45733L7.31229 7.08774L7.82691 7.45733L7.63042 6.8585L8.131 6.49827H7.51346ZM10.1427 6.49827L9.95556 5.89944L9.75907 6.49827H9.13685L9.64211 6.8585L9.45498 7.45733L9.95556 7.08774L10.4608 7.45733L10.2597 6.8585L10.7743 6.49827H10.1427ZM4.67837 3.52283L4.48188 4.12166H3.86433L4.36492 4.49125L4.17779 5.08072L4.67837 4.71581L5.18363 5.08072L4.9965 4.49125L5.49708 4.12166H4.87018L4.67837 3.52283ZM2.04913 3.52283L1.84328 4.12166H1.22574L1.72632 4.49125L1.53919 5.08072L2.04913 4.71581L2.54504 5.08072L2.35322 4.49125L2.86317 4.12166H2.23626L2.04913 3.52283ZM7.31229 3.52283L7.12515 4.12166H6.49358L7.00819 4.49125L6.8117 5.08072L7.31229 4.71581L7.82691 5.08072L7.63042 4.49125L8.131 4.12166H7.51346L7.31229 3.52283ZM9.95556 3.52283L9.75907 4.12166H9.13685L9.64211 4.49125L9.45498 5.08072L9.95556 4.71581L10.4608 5.08072L10.2597 4.49125L10.7743 4.12166H10.1427L9.95556 3.52283ZM2.04913 1.15558L1.84328 1.74505H1.22574L1.72632 2.11464L1.53919 2.7088L2.04913 2.3392L2.54504 2.7088L2.35322 2.11464L2.86317 1.74505H2.23626L2.04913 1.15558ZM4.67837 1.15558L4.48188 1.74505H3.86433L4.36492 2.11464L4.17779 2.7088L4.67837 2.3392L5.18363 2.7088L4.9965 2.11464L5.49708 1.74505H4.87018L4.67837 1.15558ZM7.31229 1.15558L7.12515 1.74505H6.49358L7.00819 2.11464L6.8117 2.7088L7.31229 2.3392L7.82691 2.7088L7.63042 2.11464L8.131 1.74505H7.51346L7.31229 1.15558ZM9.95556 1.15558L9.75907 1.74505H9.13685L9.64211 2.11464L9.45498 2.7088L9.95556 2.3392L10.4608 2.7088L10.2597 2.11464L10.7743 1.74505H10.1427L9.95556 1.15558Z" fill="white"/>
</g>
<defs>
<clipPath id="clip0_63_270">
<rect width="24" height="16" fill="white"/>
</clipPath>
</defs>
</svg>
